<svg width="60" height="58" viewBox="0 0 60 58" fill="none" xmlns="http://www.w3.org/2000/svg">
<g id="asideLogo1 1">
<g id="Group">
<g id="Group_2">
<g id="Group_3">
<g id="Group_4">
<path id="Vector" d="M29.9553 55.7859C14.9955 55.7859 2.82422 43.6667 2.82422 28.7702C2.82422 13.8737 14.9948 1.75452 29.9553 1.75452C44.9151 1.75452 57.0856 13.8737 57.0856 28.7702C57.0856 43.6667 44.9151 55.7859 29.9553 55.7859ZM29.9553 2.20013C15.2422 2.20013 3.27173 14.1193 3.27173 28.7702C3.27173 43.4211 15.2422 55.3403 29.9553 55.3403C44.6684 55.3403 56.6389 43.4211 56.6389 28.7702C56.6381 14.1193 44.6684 2.20013 29.9553 2.20013Z" fill="white"/>
</g>
<g id="Group_5">
<path id="Vector_2" d="M23.002 46.2662C23.002 46.2662 23.0101 46.3736 23.1304 46.3839C23.2508 46.3941 23.6703 46.5324 23.8711 46.65C24.2898 46.8956 24.3541 47.7354 24.3541 47.7354L24.9736 47.7303L24.9818 47.9398L25.4972 47.945C25.4972 47.945 25.1834 47.9913 25.3362 48.0016C25.4891 48.0119 25.8915 48.0068 25.8517 48.017C25.8111 48.0273 25.2402 48.0737 25.3687 48.0737C25.4972 48.0737 26.1419 48.1553 26.2216 48.0891C26.3021 48.0222 26.2379 47.7508 26.2379 47.7508H25.3444C25.3444 47.7508 25.3444 47.628 25.2395 47.6177C25.1346 47.6075 24.9013 47.6075 24.9013 47.6075C24.9013 47.6075 24.7248 46.6964 24.1613 46.4603C23.5972 46.225 23.002 46.2662 23.002 46.2662Z" fill="white"/>
<path id="Vector_3" d="M25.1826 46.5477C25.1826 46.5477 25.1508 47.3257 25.1826 47.4177C25.2143 47.5096 25.3436 47.4838 25.3436 47.4228C25.3436 47.361 25.3598 46.6397 25.3273 46.5676C25.2956 46.4963 25.1826 46.5477 25.1826 46.5477Z" fill="white"/>
<path id="Vector_4" d="M25.5288 46.425C25.497 46.5272 25.5288 47.4184 25.5605 47.4691C25.593 47.5206 25.7459 47.5309 25.7459 47.4691C25.7459 47.4074 25.7459 46.4551 25.7134 46.4044C25.6816 46.3529 25.5613 46.322 25.5288 46.425Z" fill="white"/>
<path id="Vector_5" d="M25.9638 46.4809C25.8671 46.4912 25.8834 46.6397 25.8834 46.7934C25.8834 46.9471 25.8752 47.4126 25.9638 47.4126C26.0525 47.4126 26.0362 46.8647 26.0362 46.7934C26.0362 46.7221 26.0598 46.4706 25.9638 46.4809Z" fill="white"/>
<path id="Vector_6" d="M29.7543 46.5367C29.6421 46.5367 29.6421 46.6191 29.6421 46.814C29.6421 47.0088 29.6901 47.4589 29.7706 47.4589C29.8511 47.4589 29.8511 46.9066 29.8511 46.7934C29.8511 46.6809 29.8208 46.5367 29.7543 46.5367Z" fill="white"/>
<path id="Vector_7" d="M30.1578 46.3478C29.9968 46.3478 30.0293 46.5478 30.0293 46.7316C30.0293 46.9162 29.9976 47.5096 30.1423 47.5096C30.287 47.5096 30.2553 46.9471 30.2553 46.7419C30.2553 46.5368 30.2944 46.3478 30.1578 46.3478Z" fill="white"/>
<path id="Vector_8" d="M30.4958 46.5676C30.4308 46.5676 30.4308 46.6294 30.4308 46.8243C30.4308 47.0191 30.3991 47.4589 30.4951 47.4589C30.5918 47.4589 30.5837 46.9162 30.5999 46.7934C30.6162 46.6706 30.5925 46.5676 30.4958 46.5676Z" fill="white"/>
<path id="Vector_9" d="M34.2324 46.5367C34.1201 46.5367 34.1201 46.6191 34.1201 46.814C34.1201 47.0088 34.1659 47.4464 34.2464 47.4464C34.3269 47.4464 34.3291 46.9059 34.3291 46.7934C34.3291 46.6809 34.2988 46.5367 34.2324 46.5367Z" fill="white"/>
<path id="Vector_10" d="M34.6349 46.3478C34.4739 46.3478 34.5064 46.5478 34.5064 46.7316C34.5064 46.9162 34.4746 47.5096 34.6194 47.5096C34.7641 47.5096 34.7323 46.9471 34.7323 46.7419C34.7323 46.5368 34.7722 46.3478 34.6349 46.3478Z" fill="white"/>
<path id="Vector_11" d="M34.974 46.5676C34.9091 46.5676 34.9091 46.6294 34.9091 46.8243C34.9091 47.0191 34.8766 47.4589 34.9733 47.4589C35.07 47.4589 35.0619 46.9162 35.0782 46.7934C35.0944 46.6706 35.07 46.5676 34.974 46.5676Z" fill="white"/>
<path id="Vector_12" d="M30.7685 47.742C30.7345 47.889 30.7006 48.0699 30.7456 48.1486C30.6548 48.1824 30.2974 48.1596 30.2634 48.1486C30.1947 48.1258 30.5359 48.1089 30.468 48.0751C30.431 48.0567 30.324 48.0604 30.2974 48.0471C30.225 48.0111 30.3668 48.0096 30.3712 47.9685C30.3734 47.9464 30.1386 47.9795 30.1046 47.9574C30.0603 47.928 30.2073 47.8898 30.2073 47.8898L29.7531 47.8787L29.8432 47.8082H28.9098C28.9098 47.8082 28.9578 46.8302 28.3862 46.6103C27.9572 46.4448 27.475 46.4044 27.0341 46.5537C26.5512 46.7176 26.43 47.5368 26.3577 47.5831C26.2853 47.6287 26.2373 47.5471 26.2373 47.5471C26.2373 47.5471 26.3414 46.8919 26.5349 46.6971C26.7173 46.5132 26.9795 46.2875 27.6699 46.2411C28.3545 46.1948 28.974 46.3691 29.248 46.6559C29.522 46.9427 29.5537 47.6795 29.5537 47.6795L30.6164 47.6537C30.6164 47.6537 30.8202 46.8912 31.0137 46.6963C31.1961 46.5125 31.4582 46.2867 32.1487 46.2404C32.8332 46.1941 33.4528 46.3684 33.726 46.6551C34 46.9419 34.0318 47.6787 34.0318 47.6787L35.0944 47.653C35.0944 47.653 35.3196 46.7471 35.7059 46.4397C36.0913 46.1338 36.8165 46.1889 36.8165 46.1889V46.5779C36.8165 46.5779 36.0293 46.5132 35.714 46.7368C35.4319 46.936 35.2709 47.5714 35.2635 47.6839C35.2554 47.7964 35.3255 47.7662 35.2177 47.8273C35.1535 47.864 34.8049 47.9361 34.644 47.9302C34.5679 47.9273 34.9216 47.8162 34.929 47.7971C34.9371 47.7765 34.4313 47.9185 34.3589 47.9185C34.305 47.9185 34.6668 47.8832 34.6668 47.8832L34.1676 47.8537L34.3212 47.8059H33.3871C33.3871 47.8059 33.4351 46.8279 32.8643 46.6081C32.4352 46.4426 31.953 46.4022 31.5121 46.5515C31.0292 46.7154 30.9081 47.5346 30.8357 47.5809C30.8246 47.589 30.7737 47.7214 30.7685 47.742Z" fill="white"/>
<g id="Group_6">
<path id="Vector_13" d="M29.0213 44.4617C28.8027 44.4617 28.6587 44.6029 28.6587 44.811C28.6587 45.1095 28.8824 45.147 29.0397 45.147C29.1623 45.147 29.3994 45.1007 29.3994 44.7933C29.3994 44.6168 29.2901 44.4617 29.0213 44.4617Z" fill="white"/>
<path id="Vector_14" d="M30.2056 45.2955H30.8082V44.5903H30.803L30.2056 45.2955Z" fill="white"/>
<path id="Vector_15" d="M36.1407 45.936C36.0861 45.8816 35.547 45.5587 35.3771 45.5102C35.2066 45.4617 34.9304 45.3227 34.8543 45.2977C34.6852 45.2418 34.5072 45.3073 34.4504 45.2499C34.3514 45.1514 34.2562 45.1161 34.0937 45.108C33.9312 45.0999 33.9689 45.0249 33.9039 44.8712C33.8389 44.7175 33.6661 44.7058 33.5236 44.6344C33.418 44.5815 33.1603 44.3079 33.0303 44.2675C32.9003 44.227 32.7593 44.302 32.6781 44.2373C32.5968 44.1726 32.5156 43.9704 32.3613 43.93C32.2069 43.8895 31.8318 43.8638 31.7424 43.7586C31.6531 43.6535 31.3045 43.5233 31.1015 43.3704C30.8984 43.2167 30.2803 43.227 30.2803 43.227V41.6019C30.2803 41.6019 30.3453 41.5857 30.3371 41.5372C30.329 41.4886 30.2072 41.4158 30.1259 41.3349C30.0447 41.2541 29.931 41.0923 29.931 41.0923C29.931 41.0923 29.8416 41.2379 29.7442 41.3349C29.6467 41.432 29.5005 41.5291 29.533 41.5614C29.5654 41.5938 29.6142 41.6342 29.6142 41.6342V43.2432C29.6142 43.2432 28.9045 43.1954 28.748 43.2851C28.5767 43.3836 28.3802 43.4946 28.2015 43.6167C28.0228 43.738 27.7503 43.7586 27.5834 43.7822C27.4586 43.7998 27.2784 44.0484 27.1086 44.1131C26.938 44.1778 26.7017 44.255 26.6094 44.302C26.4063 44.4072 26.3908 44.6874 26.2771 44.7278C26.1634 44.7683 25.9684 44.741 25.8968 44.9411C25.8155 45.1675 25.5076 45.0992 25.4692 45.1536C25.4123 45.2345 25.1391 45.5477 25.0416 45.5558C24.9442 45.5639 24.3933 45.8088 24.2456 45.9808C22.9289 46.0941 22.4282 46.1933 22.4282 46.1933L37.6331 46.1772C37.6331 46.1786 36.7307 45.9374 36.1407 45.936ZM27.641 45.8411H27.3907V44.7381H26.9535V44.5837C27.257 44.566 27.3826 44.5418 27.4571 44.2873H27.641V45.8411ZM28.9946 45.8838C28.5552 45.8838 28.4378 45.6183 28.4378 45.4683H28.6719C28.6852 45.6249 28.7967 45.7227 28.9887 45.7227C29.2442 45.7227 29.3801 45.544 29.4392 45.1411L29.434 45.1367C29.3646 45.2558 29.1785 45.322 29.005 45.322C28.6586 45.322 28.4164 45.13 28.4164 44.8205C28.4164 44.5374 28.6239 44.2873 29.0183 44.2873C29.6149 44.2873 29.674 44.7558 29.674 45.008C29.6733 45.1734 29.6393 45.8838 28.9946 45.8838ZM31.3171 45.4632H31.0424V45.8411H30.8083V45.4632H29.9908V45.2727L30.8489 44.2866H31.0431V45.2948H31.3178V45.4632H31.3171ZM32.2837 45.883C31.7454 45.883 31.642 45.408 31.642 45.0852C31.642 44.7624 31.7454 44.2873 32.2837 44.2873C32.8213 44.2873 32.9255 44.7631 32.9255 45.0852C32.9255 45.4073 32.8213 45.883 32.2837 45.883Z" fill="white"/>
<path id="Vector_16" d="M32.284 44.4624C32.0152 44.4624 31.8926 44.6962 31.8926 45.086C31.8926 45.475 32.0152 45.7095 32.284 45.7095C32.5528 45.7095 32.6753 45.475 32.6753 45.086C32.6753 44.6962 32.5528 44.4624 32.284 44.4624Z" fill="white"/>
</g>
</g>
<g id="Group_7">
<path id="Vector_17" d="M6.60857 29.0246C6.71786 29.0268 6.80057 28.9945 6.85521 28.9283C6.9106 28.8629 6.9394 28.7628 6.94162 28.6283L6.95196 28.0297L6.25411 28.0172L6.24377 28.6253C6.24156 28.7562 6.27035 28.854 6.33091 28.9209C6.39146 28.9879 6.48377 29.0224 6.60857 29.0246Z" fill="white"/>
<path id="Vector_18" d="M19.0619 8.72184C19.0228 8.73508 18.9733 8.79317 18.9733 8.79317C18.9497 8.83876 18.9047 8.84832 18.8936 8.88435C18.8869 8.91524 18.8544 8.96303 18.8478 8.977C18.7939 9.0498 18.7385 9.1101 18.7045 9.17481C18.6875 9.20864 18.6706 9.25717 18.7053 9.30864C18.7282 9.34247 18.7821 9.37482 18.8382 9.34173C18.8685 9.32409 18.9379 9.24614 18.9578 9.20864C18.9903 9.14907 18.9925 9.09687 19.0324 9.01892C19.059 8.96671 19.0871 8.86964 19.0863 8.84906C19.0856 8.79096 19.0841 8.71522 19.0619 8.72184Z" fill="white"/>
<path id="Vector_19" d="M34.5264 50.3863C34.3816 50.2481 34.2081 50.1988 34.0065 50.2378C33.8056 50.2767 33.6646 50.387 33.5819 50.5694C33.4992 50.7518 33.4859 50.9841 33.5413 51.2672C33.5952 51.5445 33.6941 51.7503 33.8374 51.8849C33.9807 52.0187 34.1534 52.0665 34.355 52.0276C34.5566 51.9886 34.6992 51.8798 34.7819 51.7018C34.8653 51.5239 34.8794 51.2959 34.8254 51.0187C34.7715 50.7356 34.6711 50.5245 34.5264 50.3863Z" fill="white"/>
<path id="Vector_20" d="M27.1858 5.75256C27.1452 5.77095 27.1215 5.81433 27.0558 5.81727C27.0285 5.85772 27.0543 5.92463 27.0588 5.95552C27.0632 5.98714 27.1341 6.02684 27.154 6.0217C27.202 6.00846 27.2744 5.95552 27.2914 5.88713C27.2914 5.88713 27.2914 5.81433 27.2788 5.77315C27.2663 5.73344 27.2094 5.74153 27.1858 5.75256Z" fill="white"/>
<path id="Vector_21" d="M27.1156 5.41871C27.1873 5.43488 27.3025 5.40253 27.3025 5.40253C27.349 5.3562 27.4081 5.25326 27.4014 5.20987C27.397 5.17899 27.3874 5.09074 27.3697 5.07898C27.2471 5.13781 27.0396 5.16134 27.044 5.26355C27.0462 5.31576 27.0595 5.40547 27.1156 5.41871Z" fill="white"/>
<path id="Vector_22" d="M26.4896 6.13054C26.4918 6.16143 26.4962 6.19084 26.5147 6.21584C26.5686 6.22173 26.641 6.23202 26.6698 6.2107C26.7089 6.18202 26.748 6.10775 26.7458 6.02171C26.7451 5.99009 26.7156 5.97024 26.6897 5.97686C26.6269 5.99303 26.5619 6.01142 26.5176 6.03054C26.5043 6.04524 26.4866 6.09157 26.4896 6.13054Z" fill="white"/>
<path id="Vector_23" d="M26.4661 5.68126C26.4661 5.68126 26.5045 5.74376 26.5362 5.71141C26.6005 5.6467 26.6883 5.61066 26.6861 5.52536C26.6832 5.40697 26.6492 5.3783 26.5576 5.41433C26.5333 5.45404 26.4107 5.43492 26.4291 5.53786C26.4365 5.58272 26.4254 5.65405 26.4661 5.68126Z" fill="white"/>
<path id="Vector_24" d="M7.68401 28.9893C7.77336 28.9907 7.84056 28.9591 7.88635 28.8944C7.93139 28.8297 7.95576 28.7319 7.95798 28.6003L7.96758 28.0473L7.39232 28.037L7.38198 28.6098C7.37976 28.7348 7.40339 28.829 7.45361 28.8915C7.50382 28.9554 7.58062 28.9878 7.68401 28.9893Z" fill="white"/>
<path id="Vector_25" d="M29.9544 2.9281C15.6209 2.9281 4.00195 14.498 4.00195 28.7709C4.00195 43.0431 15.6209 54.613 29.9544 54.613C44.288 54.613 55.9069 43.0431 55.9069 28.7709C55.9077 14.498 44.2887 2.9281 29.9544 2.9281ZM53.1008 27.7907L54.0962 27.7561L54.1051 28.0054L54.114 28.2562L53.1296 28.2907L51.5264 29.1842L51.516 28.8871L51.5057 28.5886L52.6223 28.0503L51.4725 27.6223L51.4621 27.3385L51.4525 27.0546L53.1008 27.7907ZM44.9858 14.9083C45.0575 14.8391 44.9696 14.595 44.9888 14.5531C45.0139 14.4987 45.0678 14.559 45.1328 14.6075C45.2458 14.6906 45.3462 14.7759 45.406 14.809C45.533 14.8789 45.7775 14.7303 45.9163 14.695C45.9606 14.684 45.9968 14.6413 45.9429 14.5715C45.9266 14.5509 45.7944 14.4516 45.7428 14.4215C45.6918 14.3921 45.5899 14.3156 45.5375 14.2671C45.4954 14.2273 45.3624 14.1898 45.3396 14.1663C45.2967 14.1222 45.2428 14.0994 45.2458 13.9987C45.2465 13.9714 45.2214 13.9354 45.2148 13.9104C45.2037 13.8656 45.2797 13.8244 45.3026 13.8031C45.3255 13.781 45.4045 13.7273 45.4651 13.7023C45.5242 13.6788 45.6748 13.7207 45.725 13.7722C45.7479 13.7957 45.7849 13.8994 45.807 13.9229C45.8299 13.9464 45.9333 13.9523 45.9909 13.9714C46.0551 13.9928 46.1076 14.0501 46.1652 14.0803C46.2375 14.1185 46.2545 14.1163 46.2922 14.1266C46.3298 14.1376 46.349 14.1193 46.3727 14.1104C46.4022 14.0994 46.4598 14.0354 46.4952 14.0251C46.5277 14.0156 46.5972 13.9935 46.6393 13.9663C46.6762 13.9428 46.5912 13.8979 46.5684 13.8744C46.5455 13.8509 46.4746 13.8391 46.4199 13.8391C46.3608 13.8398 46.304 13.8045 46.2663 13.7847C46.2375 13.7692 46.1962 13.7347 46.1836 13.695C46.1659 13.6413 46.1932 13.6244 46.2338 13.5861C46.2789 13.5427 46.3424 13.5001 46.3778 13.4994C46.4177 13.4979 46.5359 13.3751 46.685 13.3869C46.7345 13.3905 46.7722 13.4957 46.8165 13.5089C46.8475 13.5177 46.8822 13.5207 46.8948 13.528C46.928 13.5479 46.9819 13.6133 47.0196 13.6376C47.072 13.6722 47.1156 13.7111 47.182 13.7442C47.2034 13.7553 47.2551 13.8192 47.298 13.8303C47.3282 13.8384 47.3194 13.8361 47.4087 13.8884C47.4065 13.8803 47.4626 13.8957 47.4936 13.9053C47.5195 13.9134 47.5889 14.0023 47.6066 14.0266C47.6369 14.0678 47.6908 14.0994 47.7034 14.1215C47.727 14.1648 47.7322 14.2031 47.7743 14.2457C47.7979 14.27 47.9064 14.2876 47.9345 14.3075C47.9847 14.3421 48.0999 14.2987 48.1117 14.259C48.1132 14.2546 48.0084 14.1523 47.9559 14.1266C47.9124 14.1053 47.8208 14.0031 47.7883 13.992C47.7181 13.9663 47.6162 13.8759 47.5343 13.7722C47.5069 13.7376 47.4279 13.6913 47.3903 13.6758C47.3637 13.6648 47.2824 13.6052 47.2492 13.5773C47.1975 13.5332 47.1126 13.4523 47.0373 13.4016C46.9974 13.3744 46.9176 13.3118 46.863 13.278C46.7914 13.2339 46.6813 13.1758 46.6201 13.164C46.5492 13.1508 46.4856 13.1714 46.3653 13.1883C46.3461 13.1913 46.2781 13.1979 46.2523 13.1942C46.0965 13.1707 45.9547 13.1986 45.858 13.1273C45.8173 13.0971 45.7996 13.0707 45.8107 13.0037C45.8203 12.9545 45.8868 12.8089 45.9599 12.7383C46.0271 12.6736 46.0847 12.7022 46.177 12.5434C46.1969 12.5096 46.2619 12.4853 46.2951 12.4956C46.3055 12.5015 46.3542 12.5214 46.3919 12.5199C46.5078 12.5162 46.6259 12.464 46.7795 12.4383C46.7795 12.4383 46.8194 12.4464 46.8216 12.4772C46.8239 12.5 46.7242 12.6155 46.6585 12.6861C46.6178 12.7295 46.6326 12.7706 46.6703 12.7971C46.7293 12.839 46.8047 12.8699 46.8401 12.878C46.8527 12.8809 46.9021 12.9023 46.925 12.8809C46.9479 12.8589 46.9656 12.7942 46.9819 12.7655C47.0048 12.7206 47.0683 12.6449 47.0912 12.6228C47.1141 12.6008 47.2625 12.4824 47.3747 12.3971C47.4434 12.3456 47.4789 12.2544 47.6369 12.1162C47.6849 12.075 47.7787 11.964 47.7743 11.9419C47.7647 11.8993 47.8658 11.8757 47.916 11.9088C47.9367 11.9228 47.9714 11.9654 47.9891 11.9838C48.0061 12.0007 48.0379 11.9698 48.0504 12C48.0645 12.0338 48.0586 12.0397 48.0312 12.0794C48.0039 12.1213 47.9796 12.1353 47.953 12.178C47.9249 12.2235 47.8562 12.2566 47.8489 12.2919C47.8466 12.303 47.8134 12.3544 47.7802 12.3581C47.7632 12.3603 47.7152 12.4088 47.6997 12.4258C47.6738 12.4552 47.6317 12.4728 47.5978 12.5096C47.5623 12.5486 47.4449 12.6706 47.4183 12.6964C47.3925 12.7214 47.3785 12.7912 47.3142 12.839C47.2891 12.8581 47.2455 12.9074 47.2197 12.9251C47.165 12.9633 47.0897 12.9559 47.0735 12.9905C47.0565 13.0265 47.058 13.0758 47.069 13.0935C47.0905 13.1295 47.1702 13.1508 47.196 13.1729C47.2197 13.1927 47.2551 13.2383 47.2876 13.2582C47.3223 13.2795 47.394 13.3251 47.4523 13.381C47.4752 13.4023 47.5335 13.4192 47.5557 13.4361C47.5837 13.4508 47.634 13.4597 47.6576 13.4604C47.6797 13.4611 47.7012 13.453 47.7144 13.4251C47.7381 13.3744 47.693 13.356 47.6391 13.3288C47.6103 13.3141 47.5306 13.3067 47.5306 13.278C47.5306 13.2273 47.538 13.2104 47.5823 13.1854C47.6125 13.1692 47.648 13.1045 47.5992 13.0802C47.5638 13.0626 47.5003 13.1067 47.4767 13.1324C47.4456 13.167 47.4124 13.1464 47.3873 13.1435C47.3607 13.1405 47.3201 13.1501 47.3068 13.117C47.2884 13.0692 47.3105 13.0104 47.3592 12.9633C47.3821 12.9412 47.5586 12.7898 47.5837 12.7706C47.6332 12.7324 47.6672 12.6442 47.7071 12.6103C47.8038 12.5265 47.8828 12.4522 47.9153 12.4147C47.9434 12.3831 47.9626 12.3434 47.97 12.3338C47.9884 12.311 48.0586 12.2853 48.1117 12.2824C48.1376 12.2809 48.1826 12.2868 48.2181 12.3169C48.2461 12.3412 48.1841 12.4125 48.1354 12.4574C48.1051 12.4853 48.0903 12.5155 48.0881 12.5456C48.0859 12.5809 47.9153 12.7714 47.885 12.7978C47.84 12.8361 47.8577 12.8486 47.8592 12.8795C47.8614 12.9243 47.9626 12.9581 47.967 13.0052C47.97 13.0376 47.9404 13.0824 47.953 13.1037C47.9906 13.1662 48.1191 13.1199 48.1561 13.1148C48.2528 13.1015 48.2602 12.9537 48.2417 12.9243C48.2321 12.9104 48.1583 12.8971 48.1117 12.8618C48.0578 12.8199 48.0349 12.8611 48.015 12.8236C47.9892 12.7736 48.0933 12.7096 48.1546 12.6942C48.2137 12.6795 48.2816 12.6603 48.3104 12.6287C48.3547 12.5787 48.368 12.489 48.3909 12.4669C48.4079 12.4508 48.5179 12.4471 48.5415 12.4721C48.5644 12.4956 48.5341 12.5919 48.5511 12.6228C48.5725 12.6449 48.7099 12.6199 48.7845 12.6C48.831 12.5868 48.9292 12.514 48.9994 12.5434C49.0267 12.5544 49.0392 12.5942 49.0629 12.5993C49.0865 12.6044 49.1234 12.6353 49.1338 12.6486C49.1788 12.7037 49.1618 12.7956 49.1522 12.8515C49.1412 12.9192 49.0326 12.9434 48.961 12.9368C48.8709 12.9295 48.8044 12.9346 48.7439 12.9574C48.721 12.9655 48.6279 13.0265 48.6301 13.0618C48.6309 13.0736 48.6397 13.1611 48.5969 13.2067C48.5497 13.2567 48.4647 13.2449 48.2077 13.3229C48.2085 13.328 48.0002 13.3538 47.9714 13.3574C47.9212 13.3641 47.9404 13.4854 48.0202 13.5354C48.0637 13.5619 47.9042 13.6045 47.9795 13.6825C48.0335 13.7383 48.156 13.7611 48.1922 13.6847C48.1922 13.6472 48.1376 13.5964 48.1332 13.5582C48.1265 13.4942 48.2033 13.4251 48.2203 13.4361C48.258 13.4611 48.3052 13.453 48.3288 13.4538C48.3525 13.4545 48.4056 13.478 48.4374 13.4479C48.4559 13.4295 48.4175 13.3582 48.5341 13.3405C48.6095 13.3288 48.6346 13.3707 48.6641 13.3891C48.6877 13.4038 48.7535 13.3795 48.7889 13.3677C48.834 13.353 48.8716 13.3332 48.8952 13.3126C48.9661 13.2493 48.9233 13.1405 48.9905 13.1045C49.1279 13.0287 49.4196 13.2574 49.4646 13.2685C49.4779 13.2714 49.5089 13.2545 49.5333 13.2589C49.5724 13.2655 49.6204 13.2971 49.6345 13.3442C49.6433 13.3751 49.6603 13.4354 49.6677 13.5097C49.6699 13.5347 49.6573 13.5773 49.6153 13.6067C49.5776 13.6339 49.4757 13.6707 49.469 13.7192C49.4653 13.7428 49.3103 13.6913 49.2187 13.6876C49.0599 13.6803 48.9654 13.7707 48.8458 13.8258C48.8347 13.8325 48.7431 13.8678 48.721 13.8803C48.7025 13.8913 48.6412 13.9251 48.5866 13.9531C48.5304 13.9832 48.4632 14.0178 48.4256 14.0604C48.3997 14.0906 48.4426 14.1207 48.4655 14.1443C48.5076 14.1876 48.6176 14.2031 48.6516 14.2045C48.6826 14.2318 48.7217 14.2582 48.7365 14.2869C48.7505 14.3156 48.7365 14.3788 48.7505 14.4046C48.7668 14.4354 48.7941 14.4443 48.8022 14.5053C48.8066 14.5384 48.8605 14.5685 48.8539 14.6244C48.8443 14.709 48.7461 14.8215 48.6929 14.8634C48.6383 14.9061 48.5157 14.987 48.4588 14.9847C48.4042 14.9825 48.2513 14.9075 48.1213 14.7737C48.0962 14.7472 48.046 14.7193 48.0039 14.7222C47.9855 14.7237 47.9183 14.6487 47.9124 14.6046C47.9079 14.5715 47.837 14.5105 47.7802 14.4685C47.6672 14.3847 47.4575 14.3663 47.3866 14.3869C47.3304 14.4038 47.264 14.3972 47.2116 14.3862C47.1702 14.3774 47.0491 14.3693 46.9804 14.3788C46.9442 14.384 46.8586 14.4244 46.8268 14.4796C46.815 14.5002 46.8386 14.534 46.8763 14.559C46.914 14.584 46.9944 14.6002 47.0365 14.6347C47.0705 14.6619 47.1318 14.6494 47.1525 14.6737C47.1805 14.7075 47.1591 14.7847 47.2108 14.8752C47.2293 14.9075 47.2389 14.9752 47.2817 15.0612C47.2876 15.073 47.326 15.1355 47.2765 15.1642C47.2492 15.1803 47.1606 15.2568 47.1045 15.2598C47.0557 15.262 46.9944 15.2671 46.9605 15.2436C46.9014 15.2017 46.8719 15.1715 46.8024 15.1281C46.7677 15.1061 46.7116 15.0862 46.6799 15.0627C46.6304 15.0259 46.4362 14.8833 46.3734 14.9347C46.3402 14.962 46.2811 15.0517 46.2294 15.0877C46.1829 15.1193 46.1393 15.1634 46.0832 15.1928C46.0197 15.2267 45.9569 15.2451 45.903 15.3017C45.8594 15.3473 45.7649 15.3348 45.7494 15.3362C45.6394 15.373 45.5323 15.484 45.4304 15.4267C45.361 15.387 45.2694 15.3612 45.2207 15.3186C45.1335 15.2429 45.118 15.2576 45.0626 15.2215C44.9777 15.1671 44.9068 15.0899 44.881 15.0252C44.8773 14.9892 44.9497 14.9436 44.9858 14.9083ZM39.2081 9.35424C39.2842 9.37042 39.3285 9.36454 39.406 9.35351C39.4245 9.35057 39.5138 9.35057 39.5515 9.3366C39.5722 9.32924 39.618 9.34763 39.6408 9.34615C39.824 9.33733 40.1688 9.21232 40.3778 9.166C40.5713 9.12335 40.6828 8.99172 40.7471 8.94981C40.781 8.92774 40.8527 8.87333 40.8623 8.84098C40.8682 8.82112 40.7928 8.80421 40.7648 8.7895C40.7367 8.77479 40.7205 8.76229 40.6924 8.74759C40.6644 8.73288 40.6134 8.73214 40.5794 8.71744C40.5307 8.70273 40.5181 8.69685 40.4864 8.66449C40.445 8.6189 40.4428 8.56228 40.3808 8.51448C40.3439 8.48581 40.2752 8.34977 40.335 8.21079C40.3623 8.14608 40.4 8.11299 40.4546 8.10784C40.5026 8.10343 40.5484 8.07622 40.5802 8.07254C40.6208 8.0674 40.6592 8.0946 40.7028 8.0924C40.7345 8.09019 40.7648 8.07181 40.8194 8.08652C40.863 8.09755 40.9509 8.17329 41.0232 8.20932C41.1547 8.2755 41.2839 8.2755 41.4301 8.28506C41.4914 8.16299 41.5623 8.10196 41.6753 8.01078C41.7263 7.97033 41.7669 7.89312 41.8119 7.8262C41.8983 7.69826 41.8865 7.67914 41.9013 7.65119C41.9264 7.60413 41.9567 7.61369 41.9891 7.62178C42.0918 7.64972 42.0859 7.68943 42.1169 7.70855C42.1627 7.73649 42.2107 7.71076 42.2388 7.73576C42.2831 7.774 42.4271 7.82473 42.4263 7.85341C42.4241 7.92768 42.464 8.00122 42.5061 8.06593C42.5437 8.12181 42.5002 8.13873 42.4788 8.19461C42.4596 8.24535 42.4751 8.27991 42.4396 8.31006C42.4034 8.34168 42.3274 8.39095 42.2469 8.45713C42.2343 8.47331 42.1583 8.54978 42.1797 8.5689C42.2004 8.58728 42.2329 8.58949 42.269 8.59317C42.2838 8.59464 42.3517 8.59831 42.3916 8.60567C42.4308 8.61302 42.4847 8.63508 42.5282 8.63287C42.5962 8.6292 42.6907 8.60125 42.7188 8.6167C42.7188 8.6167 42.9248 8.68067 42.9255 8.73362C42.9263 8.802 42.9942 8.83215 43.071 8.89392C43.1404 8.94907 43.1146 9.09614 43.0592 9.20056C43.0363 9.24247 43.0252 9.25791 42.9772 9.23291C42.9521 9.21968 42.8989 9.24468 42.8362 9.24909C42.6966 9.25865 42.6346 9.22188 42.5511 9.21526C42.4854 9.21012 42.4463 9.21968 42.3842 9.19467C42.3222 9.16894 42.2683 9.14099 42.2196 9.12629C42.1708 9.11158 41.9877 9.07114 41.933 9.0807C41.8961 9.08731 41.8363 9.12041 41.7912 9.14908C41.7263 9.19026 41.7093 9.30718 41.713 9.34542C41.73 9.50499 41.7602 9.66823 41.8725 9.96237C41.9094 10.0587 41.8887 10.322 41.9729 10.4492C42.0623 10.5852 42.1058 10.7154 42.1509 10.819C42.176 10.8779 42.2491 10.9404 42.2801 10.9823C42.3156 11.0316 42.3333 11.1073 42.3599 11.1374C42.4285 11.2154 42.4898 11.2852 42.588 11.4132C42.6124 11.4448 42.6626 11.4786 42.6619 11.5161C42.6612 11.5485 42.6006 11.5507 42.5858 11.5742C42.5674 11.6022 42.5519 11.6588 42.5098 11.6735C42.4293 11.7029 42.3687 11.697 42.2912 11.6632C42.2617 11.6507 42.2181 11.6757 42.1908 11.6816C42.1605 11.6882 42.1361 11.6639 42.114 11.6559C42.0984 11.65 42.0002 11.5845 41.9655 11.5581C41.9301 11.5316 41.8636 11.5139 41.8045 11.4691C41.7883 11.4573 41.7056 11.408 41.6797 11.3617C41.6251 11.2647 41.535 11.261 41.4781 11.2066C41.4397 11.1698 41.3932 11.1021 41.4028 11.0492C41.4287 10.908 41.5055 10.9073 41.4095 10.6036C41.3689 10.4764 41.3733 10.3271 41.3519 10.2072C41.3474 10.1844 41.3208 10.0263 41.2994 9.97928C41.2212 9.80574 41.1798 9.59911 41.1517 9.54617C41.1414 9.52778 40.911 9.69618 40.7633 9.74103C40.5979 9.79104 40.4975 9.79398 40.2944 9.85869C40.1208 9.91384 39.9576 9.8653 39.8794 9.86898C39.8085 9.87266 39.6416 9.85942 39.5803 9.86163C39.4998 9.86383 39.3979 9.79912 39.3396 9.79398C39.3078 9.79177 39.2303 9.76456 39.2118 9.74912C39.1837 9.72486 39.1896 9.67706 39.1727 9.63808C39.1594 9.6072 39.2081 9.52117 39.1823 9.48513C39.1675 9.46454 39.1092 9.41675 39.1025 9.39322C39.0914 9.36086 39.1261 9.33733 39.2081 9.35424ZM32.237 7.2622C32.2607 7.19675 32.2747 7.12837 32.2651 7.0791C32.3153 7.01807 32.5516 6.98865 32.5937 6.99086C32.6255 6.99306 32.7023 7.04822 32.7613 7.04895C32.7931 7.04969 33.0235 7.01586 33.1498 7.00336C33.1933 6.99895 33.2605 7.01218 33.2982 7.00998C33.4164 7.00409 33.5973 6.96291 33.728 6.94527C34.0056 6.90776 34.0943 6.60701 34.1615 6.50259C34.1895 6.45847 34.2183 6.40847 34.2368 6.33714C34.2516 6.27905 34.2649 6.20919 34.2397 6.19154C34.1895 6.17316 34.1135 6.18787 34.0824 6.17831C34.0824 6.17831 33.9532 6.18787 33.8867 6.14301C33.8328 6.10698 33.8609 6.03418 33.8712 5.95329C33.8808 5.88196 33.8484 5.79961 33.8077 5.71431C33.7915 5.67975 33.8107 5.56724 33.8203 5.53709C33.8299 5.50621 33.8388 5.40179 33.8469 5.3709C33.8683 5.29001 33.9414 5.30252 34.0204 5.28413C34.0514 5.27751 34.1866 5.38046 34.2648 5.41061C34.2951 5.42238 34.6887 5.45694 34.911 5.46135C34.9597 5.46208 35.0004 5.45841 35.0277 5.45841C35.0395 5.45841 35.0868 5.45032 35.1111 5.44885C35.309 5.43782 35.4102 5.42164 35.6258 5.3687C35.662 5.35987 35.7108 5.37164 35.761 5.38561C35.8223 5.40252 35.8488 5.38782 35.8799 5.39737C35.9109 5.40693 35.9478 5.44591 35.9633 5.47826C35.9958 5.54371 36.046 5.58562 36.0711 5.65033C36.0859 5.68857 36.0822 5.74225 36.0822 5.79667C36.0822 5.83123 36.1228 5.88343 36.1162 5.90108C36.0748 6.02462 35.981 5.99962 35.8341 6.0555C35.7639 6.08271 35.6701 6.10992 35.6155 6.16286C35.5896 6.18787 35.4981 6.21507 35.4538 6.22169C35.298 6.24816 35.1717 6.21581 35.1288 6.34596C35.0838 6.482 35.1687 6.44524 35.137 6.5923C35.1303 6.62392 35.0882 6.66731 35.0668 6.68569C35.024 6.72172 35.0166 6.74452 35.0048 6.77467C34.9908 6.80849 34.9834 6.84453 34.9509 6.86953C34.9258 6.88938 34.9154 6.93571 34.9051 6.97395C34.8682 7.10557 34.8172 7.21587 34.849 7.25999C34.9974 7.27764 35.2042 7.335 35.3637 7.37471C35.4257 7.39015 35.4604 7.35559 35.5092 7.35632C35.5483 7.35706 35.6088 7.36588 35.6399 7.37544C35.6709 7.385 35.7263 7.41956 35.7684 7.44603C35.8053 7.46883 35.8511 7.52104 35.8858 7.55486C35.9301 7.59678 36.0143 7.63796 36.0283 7.74091C36.0342 7.77767 36.0224 7.82988 36.0143 7.86518C36.0113 7.87915 36.0128 7.90562 36.0209 7.91224C36.0268 7.93871 36.0268 7.95048 36.0172 7.98063C36.0076 8.01151 35.97 8.05122 35.9463 8.07401C35.9138 8.10416 35.871 8.14902 35.8348 8.14167C35.7395 8.12181 35.6901 8.11814 35.6591 8.10858C35.6288 8.09902 35.5357 8.04387 35.4804 8.02989C35.4154 8.01372 35.3548 8.01592 35.2839 7.99827C35.2027 7.97769 35.0609 7.92695 34.973 7.89312C34.9221 7.87327 34.7389 7.84459 34.6836 7.82179C34.5684 7.7762 34.4561 7.77694 34.3837 7.77253C34.3291 7.76885 34.1821 7.75267 34.092 7.74311C33.9864 7.73208 33.8646 7.67252 33.7723 7.65634C33.663 7.63649 33.3868 7.61222 33.1749 7.63134C32.9201 7.65414 32.4416 7.73429 32.4113 7.72326C32.3611 7.70487 32.288 7.53207 32.2075 7.40633C32.2016 7.36662 32.226 7.29235 32.237 7.2622ZM25.8634 5.554C25.8597 5.50473 25.8944 5.41061 25.8759 5.33708C25.853 5.24442 25.8973 5.11574 25.9498 5.10839C26.0148 5.09956 26.0244 5.18045 26.0945 5.17089C26.1255 5.16648 26.192 5.15839 26.2193 5.14001C26.24 5.12603 26.3456 5.08191 26.3781 5.065C26.4741 5.01353 26.5398 4.95911 26.6447 4.90911C26.7133 4.87602 26.8108 4.88264 26.8662 4.85469C27.0213 4.77675 27.4496 4.55173 27.5094 4.54291C27.5714 4.53408 27.6239 4.58629 27.6741 4.57968C27.7612 4.56718 27.9436 4.5385 27.9798 4.55982C27.9997 4.57159 28.0248 4.65909 28.0492 4.67527C28.0854 4.70027 28.1792 4.79587 28.1829 4.87161C28.1858 4.93264 28.1208 5.03853 28.1238 5.06206C28.1334 5.15324 28.126 5.20104 28.1083 5.23266C28.0632 5.31134 28.0381 5.39443 28.0027 5.51797C27.9916 5.55768 27.8993 5.65327 27.8875 5.69298C27.8166 5.94079 27.7258 6.11874 27.6741 6.36361C27.666 6.40332 27.6172 6.48789 27.5877 6.47833C27.5596 6.46877 27.4895 6.47097 27.4644 6.49892C27.4474 6.51803 27.3713 6.51803 27.3403 6.55921C27.3174 6.58863 27.1756 6.58716 27.1564 6.64451C27.1446 6.67907 27.1476 6.76437 27.1771 6.79379C27.2236 6.84011 27.3041 6.77614 27.3196 6.74746C27.3344 6.72025 27.3868 6.67172 27.4289 6.67613C27.4562 6.67907 27.519 6.70481 27.5988 6.70481C27.6453 6.70481 27.6733 6.74599 27.6741 6.77026C27.68 6.88203 27.7405 6.93718 27.745 6.9688C27.7494 6.99968 27.7457 7.03351 27.7309 7.05704C27.7007 7.10116 27.6608 7.1291 27.5995 7.18131C27.567 7.20925 27.4865 7.2269 27.4392 7.26661C27.4274 7.27691 27.3942 7.3225 27.4008 7.37103C27.409 7.42912 27.4599 7.42912 27.4909 7.42471C27.522 7.4203 27.6482 7.36 27.7095 7.35117C27.7708 7.34235 27.8284 7.3475 27.8801 7.33426C27.92 7.32323 28.0241 7.25926 28.0824 7.26293C28.1489 7.26661 28.2154 7.19455 28.2641 7.23426C28.2752 7.3122 28.4266 7.32764 28.4443 7.45045C28.4687 7.62472 28.3823 7.83576 28.2316 7.87033C28.1681 7.88503 28.2058 7.82768 27.9813 7.86224C27.7834 7.89312 27.6135 7.92474 27.5832 7.9343C27.5264 7.95195 27.4422 7.9446 27.3632 7.95195C27.2849 7.9593 27.2096 7.99019 27.1741 7.99827C27.1092 8.01298 27.0493 8.0549 26.9644 8.06372C26.8625 8.07475 26.7576 8.12034 26.7111 8.15196C26.6624 8.18505 26.5147 8.19608 26.4445 8.21594C26.3988 8.22917 26.3242 8.30197 26.1794 8.33874C26.1285 8.35197 26.0022 8.32697 25.9911 8.27256C25.9756 8.19535 25.9247 8.1527 25.9188 8.0446C25.9173 8.01298 25.9143 7.96151 25.9136 7.93651C25.9128 7.90709 25.9099 7.84091 25.9549 7.80488C25.9645 7.80047 25.9815 7.74532 26.0125 7.74385C26.0421 7.74311 26.0546 7.78429 26.0997 7.77105C26.13 7.76223 26.2658 7.7012 26.3256 7.65708C26.4032 7.59898 26.5354 7.52177 26.61 7.48133C26.641 7.42103 26.573 7.39677 26.5494 7.40412C26.5044 7.41736 26.4564 7.42691 26.4231 7.40485C26.3604 7.40412 26.3286 7.39162 26.3116 7.36735C26.2939 7.34162 26.302 7.28867 26.3005 7.26661C26.2976 7.22396 26.2946 7.20117 26.2961 7.1416C26.2968 7.1041 26.2939 7.04895 26.3515 7.0416C26.3825 7.03718 26.3921 7.05924 26.4231 7.05483C26.4541 7.05042 26.4645 7.03571 26.4962 7.0313C26.5272 7.02689 26.5464 7.02836 26.5671 7.01807C26.5856 7.00851 26.6144 6.97542 26.624 6.95041C26.6262 6.94453 26.6336 6.85335 26.6196 6.80261C26.6085 6.7629 26.5723 6.7732 26.5295 6.80188C26.5021 6.82099 26.4637 6.83055 26.4202 6.85041C26.3988 6.85408 26.3508 6.8835 26.319 6.88791C26.288 6.89232 26.2703 6.89159 26.2326 6.88644C26.1949 6.88203 26.1964 6.85556 26.1809 6.82761C26.1676 6.80335 26.1366 6.76658 26.1344 6.73496C26.1285 6.64892 26.0546 6.62834 26.0399 6.60628C26.0059 6.55701 25.98 6.48789 25.9756 6.457C25.9616 6.3592 26.0421 6.26875 26.0236 6.20919C26.0088 6.16066 25.938 5.96947 25.9313 5.83564C25.9298 5.79961 25.8737 5.74813 25.8597 5.68048C25.8508 5.62533 25.8663 5.59077 25.8634 5.554ZM24.6848 7.45412C24.6811 7.40191 24.7018 7.36073 24.6959 7.32397C24.6951 7.31956 24.6767 7.25705 24.636 7.22984C24.605 7.20852 24.591 7.18352 24.5681 7.15043C24.5681 7.14896 24.4433 7.04013 24.4344 6.97762C24.4204 6.87982 24.4891 6.80188 24.5821 6.7754C24.6124 6.76658 24.6693 6.77246 24.7003 6.76511C24.7712 6.74893 24.8133 6.67319 24.8443 6.60995C24.8679 6.56142 24.8391 6.42685 24.845 6.35847C24.8524 6.2717 24.7542 6.27169 24.7018 6.25919C24.6575 6.2489 24.594 6.22169 24.5474 6.22463C24.5061 6.22757 24.4522 6.17316 24.4381 6.13419C24.4101 6.08345 24.3916 6.10183 24.3525 6.09301C24.3067 6.08271 24.2897 5.95476 24.2853 5.92388C24.2831 5.90697 24.3163 5.88638 24.3599 5.86064C24.3946 5.83931 24.3968 5.79593 24.4079 5.75769C24.4248 5.70328 24.4795 5.68269 24.5275 5.66136C24.5622 5.64739 24.6545 5.64298 24.6966 5.61798C24.924 5.48709 25.1589 5.18045 25.3922 5.1606C25.5104 5.15104 25.5599 5.14736 25.6012 5.115C25.6699 5.06206 25.7304 5.21795 25.7629 5.27457C25.7807 5.30472 25.7526 5.40473 25.7556 5.45694C25.7592 5.49591 25.7046 5.55327 25.7238 5.66945C25.7319 5.71798 25.6906 5.76284 25.6337 5.83049C25.5938 5.87829 25.489 6.03124 25.4772 6.06065C25.438 6.16213 25.4853 6.25919 25.4897 6.29008C25.4941 6.32096 25.4801 6.41362 25.5244 6.44376C25.5746 6.47833 25.6049 6.42391 25.644 6.42391C25.6706 6.42391 25.6618 6.47759 25.6987 6.52906C25.7703 6.6276 25.794 6.64157 25.7984 6.69378C25.8013 6.72466 25.805 6.7504 25.7821 6.76879C25.7223 6.81658 25.5119 7.01512 25.4742 7.1519C25.4661 7.18205 25.4919 7.27838 25.5096 7.28573C25.5384 7.27838 25.6116 7.27176 25.6433 7.26735C25.6743 7.26293 25.7548 7.30558 25.7748 7.32838C25.7947 7.35117 25.8279 7.42177 25.8287 7.45265C25.8324 7.64678 25.6935 7.77988 25.5473 7.90489C25.4092 8.02254 25.1515 8.16593 25.0326 8.25785C24.9336 8.33433 24.8546 8.50051 24.7963 8.53507C24.7963 8.53507 24.7261 8.57258 24.6892 8.55346C24.6641 8.54022 24.6006 8.5439 24.5304 8.53287C24.4758 8.52404 24.4906 8.44757 24.4463 8.40933C24.4027 8.37109 24.3576 8.33727 24.3333 8.28947C24.2919 8.21005 24.2609 8.1277 24.2565 8.05269C24.2535 7.99386 24.3613 7.83944 24.4647 7.7887C24.492 7.77547 24.56 7.69017 24.5873 7.66884C24.6161 7.64605 24.6516 7.61149 24.6708 7.55486C24.6804 7.53133 24.687 7.47692 24.6848 7.45412ZM19.887 9.25497C19.918 9.22924 19.9572 9.25644 20.0059 9.21673C20.0214 9.2035 20.1152 9.21526 20.144 9.20717C20.1676 9.20056 20.2193 9.18364 20.2562 9.15423C20.2843 9.13144 20.3552 9.13879 20.3803 9.12408C20.4054 9.10938 20.4394 9.07555 20.4608 9.05643C20.5088 9.01378 20.7163 9.08511 20.7887 9.11599C20.8197 9.12923 20.8485 9.13511 20.895 9.16453C20.9142 9.17629 20.9452 9.24762 20.9519 9.27556C20.9681 9.34321 20.9474 9.36674 20.9364 9.41895C20.9275 9.46013 20.9563 9.52631 20.9496 9.57411C20.9467 9.59764 20.9408 9.65794 20.9282 9.69618C20.912 9.74103 20.8802 9.77339 20.8367 9.81604C20.8123 9.83957 20.7613 9.85428 20.7362 9.88001C20.6949 9.92193 20.6845 9.98002 20.6602 9.99473C20.6255 10.0153 20.5701 10.0043 20.5243 9.95649C20.5007 9.93149 20.4844 9.86972 20.4482 9.84251C20.4017 9.80868 20.2843 9.76162 20.2673 9.73662C20.226 9.67412 20.141 9.68221 20.1159 9.64176C20.0568 9.55058 20.0081 9.52999 19.9845 9.51381C19.9535 9.49249 19.9328 9.43587 19.9357 9.41454C19.9387 9.37263 19.8634 9.31306 19.887 9.25497ZM19.4151 10.5021C19.4018 10.4756 19.3656 10.4139 19.3501 10.3889C19.3346 10.3631 19.277 10.2911 19.2571 10.2344C19.2512 10.2249 19.1869 10.1065 19.1559 10.0124C19.1434 9.99178 19.0983 9.95943 19.0769 9.96531C19.04 10.0013 18.9831 9.97781 18.9455 10.0006C18.9196 10.016 18.8923 10.0543 18.8664 10.0697C18.8406 10.0852 18.7778 10.1227 18.7165 10.1411C18.7069 10.144 18.6589 10.1366 18.6383 10.1264C18.5947 10.1036 18.5836 10.0719 18.546 10.0403C18.5341 10.0344 18.5009 9.9984 18.4876 9.9984C18.4669 9.97119 18.4241 9.92266 18.4086 9.89692C18.3931 9.87119 18.3244 9.8153 18.2772 9.75795C18.2247 9.69397 18.1716 9.65279 18.1184 9.57338C18.0394 9.45351 17.9973 9.39763 17.9818 9.37189C17.8961 9.22409 17.9648 9.13879 17.9663 9.06231C17.9906 9.01819 18.0305 8.96966 18.0549 8.93657C18.1036 8.91451 18.1265 8.92333 18.1959 8.92848C18.2055 8.93436 18.2668 8.95128 18.2875 8.96451C18.3318 8.94172 18.4108 8.86157 18.4706 8.76744C18.4965 8.727 18.5652 8.68508 18.6065 8.62479C18.6331 8.58581 18.6752 8.52551 18.701 8.51007C18.7269 8.49463 18.7291 8.47845 18.7786 8.42771C18.8229 8.38139 18.8465 8.36153 18.8738 8.30197C18.8893 8.26667 18.9048 8.23505 18.9196 8.20932C18.9359 8.18137 18.9462 8.15711 18.9632 8.13652C18.9765 8.11005 18.9765 8.09608 19.0237 8.0674C19.0496 8.05195 19.1087 8.05269 19.1618 8.04313C19.1884 8.03872 19.2549 7.97107 19.2911 7.97327C19.3627 7.97769 19.4986 7.96151 19.548 7.98283C19.6012 8.00563 19.6647 8.08946 19.6906 8.10416C19.7186 8.12034 19.757 8.17255 19.7666 8.21814C19.7423 8.33433 19.7061 8.41374 19.7068 8.46816C19.7068 8.46816 19.7142 8.56522 19.7076 8.63802C19.6898 8.82627 19.7157 9.01378 19.7201 9.20717C19.7208 9.26453 19.7031 9.3366 19.695 9.40719C19.692 9.42998 19.6551 9.46087 19.6212 9.46602C19.5975 9.46896 19.5658 9.54249 19.5975 9.59617C19.613 9.62191 19.6485 9.68515 19.7149 9.73662C19.7895 9.79398 20.0672 10.3131 20.13 10.4242C20.1839 10.519 20.141 10.6602 20.1167 10.697C20.0893 10.7374 20.1063 10.8485 20.0613 10.919C20.0295 10.9698 19.9985 11.047 19.9727 11.0624C19.9468 11.0779 19.9188 11.0691 19.89 11.058C19.8693 11.0499 19.8028 11.072 19.7748 11.0727C19.7341 11.0727 19.709 11.0566 19.6684 11.0595C19.6308 11.0632 19.5658 11.0867 19.5126 11.0727C19.4653 11.061 19.4358 11.0227 19.3745 10.9889C19.2866 10.9396 19.0954 10.9382 19.0776 10.9124C19.0496 10.8713 19.1537 10.8021 19.1663 10.794C19.2527 10.7389 19.3494 10.7639 19.376 10.7484C19.4631 10.6948 19.4845 10.6345 19.4151 10.5021ZM18.9772 11.0801C18.9691 11.1279 18.9499 11.147 18.9174 11.2102C18.8901 11.2625 18.8288 11.2654 18.8059 11.2911C18.786 11.3132 18.735 11.4206 18.6892 11.4478C18.594 11.5051 18.4795 11.5161 18.413 11.4066C18.3975 11.3808 18.3776 11.3066 18.3621 11.2808C18.3466 11.2551 18.2964 11.2316 18.2808 11.2058C18.2653 11.1801 18.2831 11.1029 18.2727 11.0654C18.2454 10.9617 18.2136 10.833 18.2683 10.7382C18.2919 10.6984 18.3133 10.6352 18.3392 10.6205C18.433 10.5646 18.5364 10.7234 18.5688 10.7043C18.6087 10.6801 18.6656 10.6176 18.687 10.5867C18.6959 10.5742 18.8458 10.4881 18.8458 10.4881C18.8716 10.4727 18.9004 10.4639 18.9181 10.4815C18.9528 10.5153 18.9595 10.5801 18.9595 10.5801C18.9757 10.6051 19.0082 10.6668 19.0045 10.6911C18.9994 10.7242 18.9839 10.7595 18.9816 10.8102C18.9809 10.833 18.9366 10.8764 18.941 10.9065C18.9528 10.9786 18.9876 11.0161 18.9772 11.0801ZM16.9634 9.07114C16.9878 8.99981 17.0838 8.83583 17.1451 8.78068C17.1672 8.76082 17.213 8.79465 17.2389 8.77921C17.2647 8.76376 17.3208 8.6667 17.3585 8.63876C17.4722 8.55199 17.5697 8.45786 17.6738 8.35197C17.7255 8.29903 17.7964 8.28947 17.8134 8.23947C17.8363 8.20417 17.9951 8.03284 18.0431 7.98577C18.0726 7.9571 18.125 7.90415 18.1184 7.85047C18.1154 7.83135 18.0741 7.79311 18.0586 7.78135C18.0187 7.7512 17.998 7.7887 17.9626 7.80267C17.9264 7.81665 17.8658 7.80562 17.8496 7.79017C17.8274 7.76958 17.8252 7.72767 17.82 7.69899C17.8134 7.66443 17.8119 7.64899 17.8031 7.60413C17.7994 7.57398 17.7898 7.53795 17.7772 7.48868C17.761 7.42544 17.5712 7.34014 17.5335 7.30779C17.5106 7.28794 17.504 7.24749 17.5128 7.20778C17.5298 7.13646 17.5948 7.1291 17.6458 7.09528C17.6856 7.06954 17.6975 7.02468 17.7108 7.00924C17.7255 6.99233 17.772 6.97247 17.789 6.95189C17.8178 6.91512 17.809 6.90041 17.8525 6.87026C17.8769 6.85335 17.9249 6.83644 17.9581 6.82173C18.0024 6.80188 18.0556 6.76364 18.0815 6.7482C18.1125 6.72908 18.128 6.75261 18.176 6.7607C18.1944 6.76364 18.2779 6.7129 18.3119 6.72614C18.3451 6.73937 18.399 6.81805 18.43 6.83717C18.4773 6.86732 18.5511 6.85114 18.636 6.97909C18.7202 7.10631 18.687 7.12984 18.6471 7.24455C18.6434 7.28647 18.6737 7.33059 18.7084 7.29823C18.7682 7.24382 18.9912 7.0313 19.0415 6.97542C19.1138 6.896 19.1766 6.83644 19.2335 6.79158C19.2571 6.7732 19.3103 6.7857 19.3538 6.77393C19.3878 6.76437 19.4447 6.72687 19.472 6.74673C19.5296 6.78864 19.6034 6.80188 19.6529 6.78055C19.6751 6.77026 19.726 6.78129 19.7415 6.80702C19.757 6.83276 19.7814 6.87394 19.808 6.92982C19.8501 7.01733 19.7408 7.16219 19.7031 7.2394C19.6898 7.26661 19.6367 7.22543 19.5672 7.27396C19.5429 7.29088 19.4055 7.38868 19.3804 7.40412L19.2364 7.51589C19.2061 7.54457 19.1485 7.61222 19.1197 7.64311C19.0784 7.6887 19.0466 7.72326 19.009 7.77841C18.9868 7.80267 18.9218 7.80929 18.8694 7.85488C18.8465 7.87474 18.7889 7.98725 18.721 8.05637C18.5533 8.22844 18.3333 8.40418 18.3274 8.4483C18.3192 8.50492 18.2447 8.51081 18.2196 8.56008C18.2063 8.58655 18.1368 8.62773 18.1132 8.66743C18.0733 8.73435 18.0357 8.73215 18.0135 8.76744C17.9943 8.79759 17.9655 8.8145 17.9227 8.84024C17.8961 8.85642 17.8703 8.89907 17.8333 8.93363C17.8127 8.95348 17.7676 8.98731 17.741 8.99246C17.7189 8.99613 17.6679 9.04025 17.6679 9.04025C17.6613 9.08364 17.6133 9.11305 17.5668 9.14394C17.5424 9.16085 17.4929 9.22629 17.4863 9.23953C17.4929 9.26821 17.4663 9.30939 17.4287 9.34248C17.394 9.37336 17.3984 9.32851 17.326 9.33512C17.2906 9.33807 17.2381 9.40057 17.1901 9.40572C17.1318 9.4116 17.0964 9.34615 17.072 9.28806C17.0668 9.27556 17.0321 9.2285 16.9974 9.17629C16.9723 9.1432 16.9524 9.10423 16.9634 9.07114ZM12.145 12.2375C12.1671 12.2103 12.2424 12.178 12.2779 12.1427C12.3089 12.1118 12.3281 12.0471 12.3488 12.0235C12.3813 11.9868 12.4285 11.9735 12.4492 11.9515C12.4706 11.9294 12.4957 11.8544 12.5334 11.8191C12.5851 11.7706 12.6198 11.7904 12.6582 11.7831C12.6848 11.7779 12.7165 11.7456 12.7365 11.7294C12.7594 11.711 12.8081 11.7198 12.8458 11.7323C12.9425 11.7632 13.026 11.8206 13.0474 11.8419C13.1677 11.9618 13.1153 12.0713 13.1604 12.1728C13.1604 12.1728 13.2239 12.2831 13.2534 12.3022C13.325 12.3485 13.4011 12.3022 13.3819 12.2346C13.4173 12.175 13.4048 12.1235 13.4173 12.0824C13.4328 12.0331 13.5348 12.0346 13.6248 11.975C13.6758 11.9404 13.8006 12.0235 13.8781 12.0404C13.918 12.0485 13.9919 12.1132 14.0162 12.1331C14.0465 12.1574 14.0495 12.2096 14.0273 12.2463C13.9978 12.2956 13.9823 12.3243 13.9505 12.3861C13.9195 12.4449 13.9343 12.5015 13.9284 12.5471C13.9188 12.6192 13.884 12.6699 13.8774 12.7515C13.87 12.8471 13.8272 12.9876 13.7807 13.0633C13.777 13.1265 13.901 13.2942 13.9498 13.3589C13.9845 13.406 14.0443 13.4449 14.0724 13.4589C14.1558 13.5008 14.2031 13.5766 14.3242 13.5817C14.4106 13.5847 14.5044 13.5273 14.5524 13.4847C14.576 13.4574 14.6646 13.3876 14.6779 13.3832C14.7163 13.3707 14.7628 13.3192 14.7746 13.3155C14.8064 13.306 14.8662 13.2854 14.8824 13.264C14.9053 13.2354 14.9733 13.1714 15.0168 13.1486C15.0892 13.1111 15.1992 13.1633 15.2502 13.2302C15.2997 13.2949 15.3277 13.3846 15.375 13.4655C15.4104 13.5258 15.4518 13.5751 15.4459 13.6317C15.4415 13.6773 15.3595 13.7354 15.3373 13.7898C15.3093 13.8611 15.2738 13.9244 15.2428 13.9567C15.2118 13.9891 15.1402 14.0001 15.1121 14.0134C15.0434 14.0465 14.9851 14.1185 14.96 14.1472C14.9245 14.1884 14.8219 14.2899 14.8219 14.2899C14.8005 14.3119 14.7229 14.3428 14.6712 14.381C14.6122 14.4244 14.542 14.5237 14.4925 14.5516C14.449 14.5759 14.3928 14.5884 14.3567 14.595C14.3205 14.6016 14.1883 14.5715 14.1425 14.5531C14.1041 14.5384 13.986 14.4266 13.9741 14.4178C13.9394 14.3935 13.7711 14.3031 13.7489 14.2818L13.6248 14.1795C13.6027 14.1582 13.5222 14.0972 13.4986 14.0891C13.441 14.0692 13.3302 13.9663 13.3073 13.945C13.215 13.8604 13.2253 13.8222 13.0703 13.6369C13.054 13.6177 13.0341 13.5324 13.0178 13.5155C12.9366 13.4288 12.9639 13.4192 12.9034 13.3479C12.8517 13.2861 12.8015 13.1986 12.7845 13.1802C12.7018 13.0883 12.588 12.9751 12.5666 12.953C12.5179 12.9015 12.4943 12.8559 12.4566 12.7898C12.4189 12.7228 12.2971 12.5522 12.2749 12.5302C12.2749 12.5302 12.1575 12.4346 12.1265 12.3831C12.0859 12.3169 12.1066 12.2846 12.145 12.2375ZM11.1916 13.6163C11.1887 13.5891 11.1938 13.5626 11.2182 13.5435C11.2404 13.5251 11.3083 13.528 11.34 13.5052C11.3829 13.4751 11.4294 13.4221 11.4767 13.3876C11.4988 13.3714 11.5778 13.2743 11.5992 13.2515C11.6103 13.2398 11.6664 13.1964 11.7026 13.1861C11.7233 13.1802 11.7765 13.142 11.8104 13.1435C11.8865 13.1471 11.9648 13.1457 12.0157 13.181C12.0608 13.2118 12.0615 13.239 12.0948 13.2655C12.1191 13.2854 12.1989 13.3567 12.2196 13.3898C12.2358 13.4163 12.2602 13.5001 12.2978 13.5854C12.3237 13.6236 12.4034 13.7178 12.4256 13.7391C12.4928 13.8038 12.5386 13.8523 12.6759 13.9972C12.718 14.042 12.7549 14.1001 12.8133 14.1693C12.8332 14.1935 12.8989 14.2648 12.9403 14.3053C13.0031 14.3656 13.0422 14.3472 13.0614 14.3597C13.0813 14.3722 13.0961 14.3818 13.1234 14.4016C13.1604 14.4281 13.2032 14.4369 13.2224 14.4612C13.2527 14.4994 13.2837 14.5825 13.356 14.6781C13.393 14.7266 13.3996 14.7803 13.3952 14.8311C13.3893 14.9171 13.376 15.0377 13.3346 15.1289C13.2896 15.2274 13.3501 15.3708 13.3376 15.4392C13.3243 15.5127 13.2822 15.6039 13.2534 15.6877C13.2157 15.7951 13.1825 15.9216 13.1751 16.0355C13.1714 16.0973 13.122 16.1635 13.1057 16.2267C13.0998 16.2466 13.0946 16.487 13.0599 16.5826C13.0385 16.6422 12.8901 16.6025 12.8081 16.6025C12.7468 16.6032 12.7424 16.615 12.6589 16.6275C12.6161 16.6341 12.5637 16.5694 12.526 16.5481C12.4824 16.5238 12.4145 16.5032 12.3997 16.4893C12.3628 16.454 12.3613 16.3929 12.3746 16.3672C12.3901 16.3356 12.433 16.312 12.4433 16.2775C12.4647 16.2091 12.478 16.1554 12.4876 16.0797C12.4972 16.0003 12.546 15.9341 12.5637 15.8951C12.6139 15.7833 12.625 15.6289 12.653 15.5363C12.6693 15.4826 12.6981 15.3789 12.6471 15.3259C12.6471 15.3259 12.4226 15.1105 12.3887 15.0995C12.3517 15.087 12.2986 15.1237 12.2986 15.1237C12.2786 15.1715 12.2292 15.2274 12.2077 15.2502C12.1863 15.2723 12.1708 15.348 12.1487 15.3892C12.1346 15.4164 12.114 15.4664 12.0844 15.4782C12.0534 15.4907 12.0349 15.5017 11.9936 15.4885C11.9249 15.4671 11.8946 15.423 11.8422 15.3914C11.8068 15.3701 11.778 15.3745 11.7322 15.3296C11.6746 15.2745 11.6923 15.2605 11.5586 15.1495C11.4818 15.0862 11.5217 14.9906 11.5527 14.9436C11.5926 14.884 11.5978 14.8046 11.645 14.7516C11.6694 14.7237 11.7263 14.6649 11.7381 14.6369C11.7617 14.5796 11.806 14.4884 11.8097 14.4252C11.7949 14.3575 11.8053 14.2921 11.7425 14.2273C11.6221 14.1031 11.5956 14.0148 11.4914 13.9104C11.3652 13.7839 11.2832 13.8214 11.233 13.8082C11.2034 13.8008 11.1872 13.7817 11.1798 13.7567C11.1842 13.7023 11.1997 13.6861 11.1916 13.6163ZM29.9544 9.17041C40.8261 9.17041 49.6381 17.9452 49.6381 28.7702C49.6381 39.5951 40.8261 48.37 29.9544 48.37C19.0836 48.37 10.2708 39.5951 10.2708 28.7702C10.2708 17.9452 19.0836 9.17041 29.9544 9.17041ZM5.80454 27.7701L5.80897 27.5304L8.42682 27.576L8.42238 27.8157L8.40614 28.7371C8.40245 28.9687 8.34042 29.1489 8.22153 29.2776C8.1019 29.4062 7.93869 29.4688 7.73119 29.4651C7.51408 29.4614 7.35014 29.3849 7.24011 29.2364C7.22165 29.2121 7.20466 29.1849 7.18989 29.1555C7.16478 29.2114 7.13598 29.2614 7.10128 29.304C6.98312 29.4555 6.81402 29.5291 6.59322 29.5254C6.32589 29.521 6.12429 29.4408 5.98694 29.2871C5.85033 29.1334 5.7846 28.9106 5.78977 28.6187L5.80454 27.7701ZM5.85106 30.5894L8.44971 30.2717L8.66534 32.0241L8.43567 32.052L8.20454 32.0799L8.04946 30.8247L7.49783 30.8924L7.64109 32.0564L7.41881 32.0836L7.19358 32.1108L7.05032 30.9468L6.37315 31.0291L6.53488 32.3395L6.30522 32.3675L6.07334 32.3961L5.85106 30.5894ZM6.23506 33.4793L6.18706 33.2322L8.75765 32.7351L8.80565 32.98L8.85365 33.2263L6.28306 33.7234L6.23506 33.4793ZM6.93069 35.7625C6.76528 35.6714 6.64934 35.503 6.58362 35.2574C6.51346 34.9956 6.5334 34.7845 6.64565 34.6242C6.75789 34.4639 6.9654 34.347 7.26891 34.2757L7.42029 34.2352L7.54436 34.6956L7.39297 34.736C7.23863 34.7728 7.13008 34.8235 7.06878 34.8897C7.00675 34.9551 6.98977 35.0375 7.01635 35.1375C7.0422 35.2331 7.08724 35.2949 7.15223 35.3213C7.21721 35.3485 7.311 35.3456 7.43432 35.3132L9.25315 34.8279L9.31814 35.0691L9.38312 35.3118L7.56503 35.7971C7.30731 35.8655 7.09611 35.8537 6.93069 35.7625ZM7.30804 37.1773L7.21796 36.9428L9.66226 36.0089L9.75236 36.242L9.84245 36.4766L7.39814 37.4104L7.30804 37.1773ZM8.47334 39.8157L8.36774 39.5892L9.65931 37.8987L7.94829 38.6929L7.84934 38.4818L7.74965 38.2686L10.1231 37.167L10.2346 37.4053L10.3461 37.6435L9.08848 39.2892L10.7544 38.5156L10.8534 38.7274L10.9531 38.9399L8.58042 40.0415L8.47334 39.8157ZM11.5298 41.4467C11.6184 41.3739 11.6701 41.2702 11.6849 41.1357C11.6997 41.0011 11.6731 40.8812 11.6037 40.7754C11.484 40.5923 11.3223 40.4945 11.117 40.4805C10.9117 40.4665 10.6865 40.5386 10.4413 40.6974C10.1917 40.8584 10.0352 41.0305 9.96946 41.2129C9.90448 41.396 9.93328 41.5828 10.0581 41.7732C10.1644 41.935 10.3143 42.0173 10.5085 42.021C10.6178 42.0218 10.7323 42.0004 10.8512 41.957L10.8556 41.9541L10.5469 41.4805L10.925 41.2364L11.4744 42.0791L10.29 42.8453L10.1068 42.5644L10.3638 42.3394L10.3121 42.3387C10.0138 42.3306 9.78559 42.2056 9.62829 41.9637C9.62829 41.9644 9.62903 41.9644 9.62903 41.9651L9.62829 41.9637C9.43777 41.671 9.38977 41.3724 9.48356 41.068C9.57734 40.7629 9.80036 40.4967 10.1526 40.2694C10.5108 40.0378 10.8541 39.9429 11.1813 39.9856C11.5084 40.0282 11.7713 40.2018 11.97 40.5062C12.1295 40.7504 12.1944 40.9952 12.1634 41.2401C12.1332 41.4842 12.0128 41.6938 11.8031 41.8666L11.5298 41.4467ZM11.9367 44.8322L11.7676 44.6455L13.7135 42.9012L13.8811 43.0865L14.0502 43.2733L12.1044 45.0175L11.9367 44.8322ZM14.0258 46.9015L13.8427 46.7309L14.4039 44.6815L13.116 46.0566L12.9447 45.897L12.7719 45.7367L14.5575 43.83L14.7503 44.0094L14.943 44.1888L14.3965 46.1838L15.6504 44.8455L15.8218 45.0043L15.9946 45.1646L14.209 47.0713L14.0258 46.9015ZM17.6133 47.3177L17.2167 47.0309C17.2824 46.9257 17.3002 46.8162 17.2692 46.7037C17.2381 46.5912 17.1628 46.4919 17.0432 46.4059C16.9398 46.3309 16.8408 46.297 16.7471 46.3044C16.6533 46.3117 16.5735 46.3588 16.5093 46.447C16.4635 46.5103 16.4583 46.5809 16.4938 46.6595C16.5285 46.7375 16.6267 46.8706 16.7877 47.0588C17.021 47.3331 17.1525 47.5493 17.1828 47.7089C17.213 47.867 17.1569 48.0442 17.0129 48.2413C16.8682 48.4391 16.6821 48.545 16.4532 48.5567C16.2242 48.5692 15.9872 48.4861 15.742 48.3082C15.4954 48.1295 15.3477 47.9287 15.2989 47.7052C15.2502 47.4817 15.3041 47.2522 15.4607 47.0177L15.8528 47.3015C15.7752 47.4169 15.7501 47.5295 15.7767 47.6412C15.8033 47.753 15.8801 47.8545 16.0064 47.9457C16.1364 48.0398 16.2545 48.0898 16.3601 48.0971C16.4664 48.1045 16.5484 48.0677 16.6075 47.9876C16.6658 47.9082 16.6821 47.8309 16.6562 47.7552C16.6319 47.6809 16.5506 47.5625 16.4125 47.4015C16.1578 47.103 16.0101 46.8728 15.9695 46.7103C15.9288 46.5492 15.9754 46.3772 16.1083 46.1948C16.2575 45.9904 16.4443 45.8771 16.6688 45.8566C16.8933 45.836 17.1222 45.9095 17.3556 46.0786C17.5734 46.2367 17.7056 46.4272 17.7521 46.6507C17.7986 46.8728 17.7528 47.0956 17.6133 47.3177ZM18.3288 49.8318L18.1095 49.7112L17.8887 49.5891L18.9322 47.7133L18.2964 47.3618L18.4086 47.1603L18.5216 46.9574L20.2341 47.9023L20.1218 48.1038L20.0088 48.3067L19.373 47.956L18.3288 49.8318ZM20.1144 50.737L19.8877 50.6319L19.6588 50.5252L20.765 48.1626L20.9917 48.2685L21.2207 48.3744L20.1144 50.737ZM23.4929 49.4811L23.4168 49.7009L22.7286 49.4649L22.0271 51.4922L21.79 51.4106L21.5515 51.329L22.253 49.3016L21.5648 49.0656L21.6401 48.8472L21.7162 48.6273L23.5675 49.2627L23.4929 49.4811ZM25.602 51.4966C25.5126 51.8584 25.3738 52.1011 25.1855 52.2246C24.9979 52.3481 24.7372 52.368 24.4027 52.2849C24.0829 52.2055 23.8666 52.0628 23.7543 51.8577C23.6421 51.6525 23.6288 51.376 23.7144 51.0282L24.1095 49.4516L24.3532 49.5119L24.5984 49.573L24.1989 51.1665C24.1538 51.3473 24.1575 51.4929 24.21 51.6025C24.2631 51.7121 24.3658 51.7856 24.5186 51.8238C24.6818 51.8643 24.8088 51.8518 24.8997 51.7863C24.9905 51.7209 25.0607 51.5893 25.1094 51.3929L25.5082 49.7995L25.7519 49.8598L25.9963 49.9208L25.602 51.4966ZM28.4879 50.4693L28.4598 50.6995L27.7376 50.6113L27.4754 52.7393L27.2266 52.7092L26.9762 52.6783L27.2384 50.5502L26.5162 50.462L26.5442 50.2333L26.5723 50.0031L28.5152 50.2407L28.4879 50.4693ZM29.1805 52.8482L29.1348 50.2414L30.9078 50.2105L30.9115 50.4414L30.9152 50.6738L29.6458 50.6958L29.6554 51.2495L30.8332 51.229L30.8369 51.4525L30.8406 51.6775L29.6628 51.6981L29.6746 52.3776L31.0001 52.354L31.0038 52.5842L31.0082 52.8166L29.1805 52.8482ZM35.2049 51.9606C35.0476 52.24 34.7936 52.4136 34.4443 52.482C34.0972 52.5489 33.7974 52.4827 33.5456 52.282C33.2938 52.0812 33.1284 51.776 33.0479 51.3665C32.9666 50.9488 33.0036 50.5973 33.1609 50.312C33.3181 50.0274 33.5699 49.8509 33.917 49.784C34.2663 49.7164 34.5676 49.7855 34.8194 49.9914C35.0712 50.1973 35.2389 50.5091 35.3201 50.9267C35.4006 51.3363 35.3622 51.6812 35.2049 51.9606ZM37.0607 51.7783L36.8229 51.8555L36.5829 51.9334L35.7735 49.4538L37.4033 48.9266L37.4749 49.1457L37.5473 49.3671L36.396 49.7399L36.5799 50.3032L37.5835 49.9789L37.6529 50.1914L37.7231 50.4054L36.7195 50.7304L37.0607 51.7783ZM40.9826 50.1399L40.7596 50.2576L39.7487 48.3641L39.1062 48.7038L38.9976 48.5008L38.8884 48.2957L40.6171 47.3802L40.7264 47.5839L40.8357 47.789L40.1932 48.1288L41.2042 50.0223L40.9826 50.1399ZM42.5792 49.2641L41.1532 47.0772L42.6405 46.1161L42.7668 46.3095L42.8938 46.5044L41.8289 47.1927L42.1317 47.6567L43.1197 47.0177L43.2423 47.2052L43.3657 47.3942L42.3776 48.0332L42.749 48.6031L43.8604 47.8846L43.9867 48.078L44.1137 48.2729L42.5792 49.2641ZM46.1031 46.3779C46.0743 46.6338 45.9488 46.8544 45.7273 47.039C45.4673 47.2559 45.1823 47.3346 44.8721 47.2743C44.562 47.2147 44.271 47.025 44.0022 46.7051C43.7275 46.3794 43.5857 46.0566 43.5768 45.7374C43.5687 45.4183 43.6935 45.1499 43.9527 44.9337C44.1721 44.7506 44.4076 44.6631 44.6594 44.6712C44.912 44.6793 45.1424 44.7822 45.3521 44.98L44.9666 45.3021C44.8633 45.205 44.7488 45.155 44.621 45.1528C44.4948 45.1506 44.3744 45.197 44.2614 45.2918C44.1181 45.4117 44.0583 45.5668 44.0805 45.7588C44.1034 45.9507 44.2075 46.1558 44.3921 46.375C44.5723 46.589 44.754 46.7228 44.9364 46.7757C45.1195 46.8294 45.2827 46.7956 45.4267 46.675C45.5397 46.5801 45.6032 46.4669 45.6172 46.3353C45.6312 46.2029 45.5936 46.072 45.5042 45.9411L45.8897 45.619C46.061 45.8691 46.1319 46.122 46.1031 46.3779ZM48.3621 44.3285L48.1937 44.5153L47.312 43.7248L46.6813 44.4219L47.5631 45.2124L47.3954 45.3977L47.2271 45.5845L45.2812 43.8395L45.4489 43.6542L45.618 43.4674L46.3468 44.1212L46.9767 43.4241L46.2479 42.7703L46.4155 42.585L46.5846 42.3983L48.5304 44.1425L48.3621 44.3285ZM50.1957 41.9115L50.0517 42.1159L47.9352 41.8475L49.4816 42.9255L49.3472 43.1167L49.212 43.3093L47.0668 41.8137L47.2182 41.5982L47.3696 41.3827L49.4299 41.6438L47.9242 40.5937L48.0586 40.4025L48.1937 40.2099L50.3382 41.7048L50.1957 41.9115ZM51.457 39.851C51.2908 40.1621 51.0501 40.3518 50.7355 40.4202C50.4202 40.4886 50.0783 40.4253 49.7076 40.229C49.3302 40.029 49.0791 39.779 48.9558 39.4782C48.8317 39.1775 48.8532 38.8716 49.0193 38.5605C49.1869 38.2473 49.4299 38.0583 49.7496 37.9928C50.0694 37.9274 50.4172 37.9943 50.7953 38.1943C51.1653 38.3899 51.4104 38.637 51.5293 38.9348C51.6482 39.2326 51.6239 39.5378 51.457 39.851ZM52.2996 37.848L49.8552 36.9141L49.9453 36.681L50.0354 36.4464L52.0455 37.2148L52.4753 36.1015L52.6917 36.1839L52.9095 36.267L52.2996 37.848ZM53.5173 34.3595C53.4316 34.7014 53.2448 34.9434 52.9553 35.086C52.6658 35.2287 52.3188 35.2493 51.9119 35.1478C51.4969 35.0448 51.1933 34.8625 50.9999 34.6C50.8071 34.3382 50.7532 34.036 50.8389 33.694C50.9253 33.3499 51.1151 33.108 51.409 32.9675C51.7029 32.8271 52.0573 32.8079 52.4724 32.9109C52.8793 33.0116 53.1768 33.1925 53.3644 33.4528C53.5527 33.7131 53.6037 34.0154 53.5173 34.3595ZM53.7455 30.3578C53.9759 30.5475 54.0785 30.7857 54.0527 31.0725V31.0711C54.0224 31.4189 53.8754 31.6843 53.6125 31.8674C53.3504 32.0498 53.01 32.1233 52.592 32.0873C52.1659 32.0505 51.8373 31.9152 51.6054 31.6807C51.3743 31.4468 51.2738 31.149 51.3056 30.7865C51.3307 30.496 51.4311 30.2637 51.6069 30.0894C51.7819 29.9151 52.0057 29.8247 52.2781 29.8158L52.2338 30.3151C52.1194 30.3181 52.0145 30.3681 51.9192 30.4651C51.824 30.5622 51.7716 30.6732 51.7605 30.799C51.7413 31.0159 51.8085 31.1931 51.9613 31.3299C52.1142 31.4667 52.3365 31.5476 52.6274 31.5733C52.9236 31.599 53.1532 31.5601 53.3179 31.4556C53.4826 31.3512 53.5749 31.1858 53.5948 30.9593V30.9608C53.6118 30.7681 53.5446 30.61 53.394 30.4879C53.3083 30.4203 53.2049 30.3673 53.0845 30.3284L53.0786 30.3276L53.0292 30.8902L52.5802 30.8512L52.6681 29.8504L54.0748 29.9732L54.0453 30.3063L53.7041 30.3262L53.7455 30.3578Z" fill="white"/>
<path id="Vector_26" d="M50.5553 38.6348C50.2998 38.4995 50.0716 38.4443 49.8729 38.4693C49.6743 38.4944 49.5259 38.5973 49.4299 38.7782C49.3339 38.9576 49.3316 39.137 49.4217 39.315C49.5118 39.4929 49.6854 39.6503 49.9409 39.7856C50.192 39.9187 50.4142 39.9717 50.6099 39.9452C50.8049 39.918 50.9504 39.815 51.0471 39.6341C51.1438 39.4532 51.1483 39.2753 51.0619 39.0988C50.974 38.9216 50.8064 38.7672 50.5553 38.6348Z" fill="white"/>
<path id="Vector_27" d="M52.3469 33.3962C52.0655 33.3264 51.8314 33.3279 51.6446 33.3999C51.4578 33.472 51.3396 33.608 51.2894 33.8058C51.2399 34.0036 51.2805 34.1779 51.412 34.3294C51.5427 34.4809 51.7487 34.5912 52.0301 34.661C52.3055 34.7294 52.5352 34.7272 52.7176 34.6544C52.9 34.5816 53.0167 34.4456 53.0661 34.2478C53.1156 34.0492 53.0772 33.875 52.9502 33.7242C52.8239 33.5742 52.6223 33.4646 52.3469 33.3962Z" fill="white"/>
</g>
<path id="Vector_28" d="M42.5806 33.1874C40.6429 33.2646 37.904 33.1006 35.3954 33.1308C34.9929 33.2051 34.6326 33.2639 34.3505 33.2999C33.6785 33.3852 32.5553 33.5051 32.062 33.5566L32.7643 36.3854L29.9537 36.859L27.1423 36.3854L27.8446 33.5566C27.3513 33.5043 26.2289 33.3852 25.5561 33.2999C25.274 33.2639 24.9137 33.2051 24.5119 33.1308C22.0034 33.1006 19.2644 33.2646 17.3267 33.1874C16.047 33.1367 14.3345 32.7161 14.3345 32.7161C14.3345 32.7161 15.2118 34.1191 16.2175 34.8066C16.2175 34.8066 21.2036 36.3817 28.0669 36.9678L27.3048 39.9996L29.9529 40.571L32.6003 39.9996L31.8382 36.9678C38.7015 36.3825 43.6876 34.8066 43.6876 34.8066C44.6934 34.1184 45.5707 32.7161 45.5707 32.7161C45.5707 32.7161 43.8604 33.1367 42.5806 33.1874Z" fill="white"/>
<path id="Vector_29" d="M42.1707 29.2019C41.7778 29.2085 41.2897 29.2012 40.7329 29.1923C40.2374 29.185 39.6754 29.1762 39.0824 29.1762C38.3956 29.1762 37.5287 29.1864 36.5923 29.2416C35.7867 29.485 34.9012 29.6894 33.9028 29.863C33.2929 29.9689 32.4466 29.9902 31.9998 29.9931L32.643 32.7109L29.9728 33.0264L29.955 33.0235L29.9373 33.0264L29.9078 33.0227L27.267 32.7109L27.9102 29.9931C27.4642 29.9902 26.6179 29.9689 26.008 29.863C25.0096 29.6894 24.1241 29.4857 23.3185 29.2416C22.3821 29.1864 21.5152 29.1762 20.8284 29.1762C20.2354 29.1762 19.6734 29.1842 19.1779 29.1923C18.6204 29.2004 18.133 29.2085 17.7401 29.2019C17.1582 29.1923 16.5136 29.0982 16.0801 29.021C16.4057 29.4563 16.9677 30.0836 17.6707 30.5807C18.4742 31.0594 19.4652 31.4447 19.9851 31.6322C20.8084 31.9285 24.198 32.697 25.6129 32.8764C26.4835 32.9867 28.1192 33.1558 28.1355 33.158L28.3806 33.183L27.671 36.042L29.9558 36.4273L32.2406 36.042L31.5309 33.183L31.7753 33.158C31.7916 33.1558 33.428 32.9874 34.2979 32.8764C35.7136 32.697 39.1031 31.9285 39.9265 31.6322C40.4463 31.4447 41.4381 31.0594 42.2408 30.5807C42.9438 30.0836 43.5058 29.4563 43.8315 29.021C43.3972 29.0975 42.7518 29.1923 42.1707 29.2019Z" fill="white"/>
<path id="Vector_30" d="M40.618 25.0935C40.4319 25.1023 40.22 25.1119 39.9822 25.1229C39.209 25.1575 38.2084 25.2031 36.9922 25.2773C36.8821 25.3384 36.7714 25.3979 36.6576 25.4553C35.6253 25.9803 34.4555 26.3517 33.2777 26.5296C33.1042 26.5561 32.9011 26.5686 32.6736 26.5686C32.3952 26.5686 32.1279 26.5487 31.9322 26.5296L32.5141 28.946L29.9554 29.107L27.3951 28.946L27.977 26.5296C27.7813 26.5487 27.5147 26.5686 27.2356 26.5686C27.0089 26.5686 26.8058 26.5554 26.6316 26.5296C25.453 26.3517 24.2847 25.9803 23.2516 25.4553C23.1379 25.3979 23.0271 25.3384 22.9171 25.2773C21.7001 25.2031 20.6995 25.1575 19.9271 25.1229C19.6893 25.1119 19.4773 25.1023 19.2912 25.0935C19.0808 25.0832 18.2308 24.9957 17.6519 24.9082C17.9635 25.3766 18.4944 26.037 19.213 26.6186C19.8835 27.1936 20.7253 27.7356 21.528 28.1099C22.7923 28.6996 24.2389 29.1232 26.0807 29.4431C26.7268 29.5556 27.6698 29.5673 28.0457 29.5673C28.1284 29.5673 28.1764 29.5666 28.1764 29.5666L28.4511 29.5629L27.7931 32.344L29.9273 32.5962L29.9539 32.5918L29.9812 32.5962L32.1154 32.344L31.4574 29.5629L31.7314 29.5666C31.7314 29.5666 31.7801 29.5673 31.8628 29.5673C32.2379 29.5673 33.1817 29.5548 33.8279 29.4431C35.6696 29.1232 37.1162 28.6996 38.3805 28.1099C39.1832 27.7356 40.025 27.1936 40.6904 26.6223C41.4133 26.0377 41.945 25.3766 42.2567 24.9075C41.6777 24.995 40.8285 25.0832 40.618 25.0935Z" fill="white"/>
<path id="Vector_31" d="M39.9461 20.9616C39.87 20.9748 39.7681 20.9939 39.6411 21.0175C38.9795 21.1417 37.5934 21.4013 35.7701 21.6065C35.903 21.5381 36.0337 21.455 36.1585 21.355C36.7604 20.8711 36.9457 20.1233 36.9989 19.8012C37.3652 19.699 38.3156 19.3622 39.0127 18.4945C39.7216 17.6121 39.825 16.6819 39.8243 16.2061L39.8235 15.9098L39.5414 16.0046C38.6848 16.2929 35.5648 17.2327 31.3475 17.2363C31.2485 16.7267 30.9612 15.2516 30.931 15.1024L30.9243 15.0678C30.8711 14.7972 30.7109 13.9751 29.971 13.9751H29.9363C29.1971 13.9751 29.0361 14.7979 28.9836 15.0678L28.977 15.1024C28.9467 15.2516 28.6595 16.7267 28.5605 17.2371C24.3432 17.2334 21.2239 16.2936 20.3665 16.0054L20.0852 15.9105L20.0844 16.2069C20.083 16.6826 20.1871 17.6128 20.896 18.4952C21.5931 19.3637 22.5435 19.6997 22.9105 19.8019C22.9637 20.124 23.1483 20.8719 23.7509 21.3557C23.8757 21.4557 24.0064 21.5388 24.1386 21.6065C22.3146 21.402 20.93 21.1425 20.2691 21.0182C20.142 20.9947 20.0394 20.9755 19.9641 20.9623C19.6716 20.9108 19.3733 20.8483 19.1333 20.791C19.391 21.2851 19.8814 22.0631 20.419 22.6757C21.3664 23.7537 22.2998 24.4934 23.4467 25.0765C24.4391 25.5802 25.5631 25.9376 26.6959 26.109C26.8488 26.1318 27.0304 26.1435 27.2357 26.1435C27.7401 26.1435 28.2201 26.0729 28.2252 26.0722L28.5391 26.0251L27.9306 28.554L29.9555 28.6812L31.9803 28.554L31.3711 26.0251L31.6849 26.0722C31.6894 26.0729 32.1694 26.1435 32.6737 26.1435C32.8798 26.1435 33.0607 26.1318 33.2136 26.109C34.3471 25.9376 35.471 25.581 36.4635 25.0765C37.6096 24.4941 38.5438 23.7537 39.4905 22.6757C40.0281 22.0638 40.5184 21.2859 40.7761 20.791C40.5369 20.8469 40.2385 20.9101 39.9461 20.9616ZM23.3174 19.6137L23.3049 19.4527L23.1461 19.421C23.135 19.4188 21.9978 19.182 21.2305 18.2276C20.7291 17.604 20.5703 16.954 20.5268 16.5039C21.6958 16.8694 24.6828 17.6621 28.5856 17.6621L28.9142 17.6606L28.9475 17.4893C28.9475 17.4893 29.3603 15.3664 29.3972 15.1855L29.4046 15.1487C29.4769 14.7788 29.5966 14.4001 29.9377 14.4001H29.9724C30.3129 14.4001 30.4332 14.7781 30.5056 15.1487L30.513 15.1855C30.5492 15.3664 30.962 17.4893 30.962 17.4893L30.9952 17.6606L31.3238 17.6621C35.2266 17.6621 38.2137 16.8694 39.3827 16.5039C39.3391 16.954 39.1803 17.6033 38.6789 18.2276C37.9161 19.1769 36.7744 19.4188 36.7641 19.421L36.606 19.4527L36.5927 19.613C36.592 19.6225 36.5123 20.5233 35.8897 21.0233C35.3831 21.4307 34.7444 21.491 34.4084 21.491C34.2851 21.491 34.209 21.4829 34.209 21.4829L34.0428 21.4631L33.9838 21.619C33.9816 21.6256 33.7342 22.2536 32.8753 22.5308C32.6981 22.5881 32.5068 22.6168 32.3082 22.6168C31.8924 22.6168 31.5779 22.4896 31.5756 22.4889L31.1835 22.3249L31.758 24.6611H28.1529L28.7259 22.3278L28.336 22.4881C28.3331 22.4889 28.0185 22.6168 27.6027 22.6168C27.4033 22.6168 27.2128 22.5881 27.0356 22.5308C26.1871 22.2572 25.9368 21.6432 25.9272 21.619L25.8681 21.4638L25.7027 21.4822C25.7027 21.4822 25.6259 21.491 25.5025 21.491C25.1665 21.491 24.5278 21.43 24.0212 21.0233C23.3979 20.5233 23.3182 19.6218 23.3174 19.6137Z" fill="white"/>
<path id="Vector_32" d="M33.3853 13.0427C33.352 12.3611 33.1748 11.8132 33.1748 11.8132C33.1748 11.8132 32.6786 12.3096 32.5988 12.9236C32.519 13.5376 32.8669 14.0671 32.8669 14.0671C32.8669 14.0671 33.4104 13.5611 33.3853 13.0427Z" fill="white"/>
<path id="Vector_33" d="M32.6564 15.0797C32.2554 14.9017 31.8994 14.9664 31.7296 15.0172C33.0522 14.4487 34.2212 13.6229 34.8629 12.8626C34.9906 12.7111 35.0652 12.5743 35.1036 12.4663C35.255 12.4177 35.5622 12.267 35.7269 11.8199C35.9285 11.2721 35.9307 10.6353 35.9307 10.6353C35.9307 10.6353 35.509 10.7985 35.1376 11.4147C34.9197 11.7765 34.9508 12.1677 34.9862 12.3626C34.9382 12.4229 34.8703 12.5067 34.8119 12.5692C34.5904 12.8067 34.3305 13.042 34.0439 13.2707C34.1163 13.1979 34.5343 12.7538 34.5121 12.2986C34.4804 11.6441 34.3157 11.1176 34.3157 11.1176C34.3157 11.1176 33.8556 11.5941 33.7825 12.1831C33.7102 12.7633 34.021 13.2641 34.0306 13.2795C33.3166 13.8458 32.4363 14.3634 31.5509 14.7362C31.6439 14.6539 32.1173 14.2112 32.101 13.748C32.0774 13.0736 31.8994 12.5295 31.8994 12.5295C31.8994 12.5295 31.3648 13.0111 31.2695 13.6163C31.1802 14.1833 31.4903 14.684 31.5295 14.7443C31.2518 14.8605 30.9749 14.9627 30.7017 15.048C30.709 15.0841 30.715 15.1172 30.7201 15.1436C30.726 15.1738 30.7423 15.2569 30.7659 15.3745C31.0561 15.2841 31.3434 15.1775 31.624 15.0605C31.6439 15.1142 31.8714 15.6944 32.4717 15.829C33.2855 16.0113 33.6717 15.8084 33.6717 15.8084C33.6717 15.8084 33.2154 15.3275 32.6564 15.0797Z" fill="white"/>
<path id="Vector_34" d="M34.1001 14.3097C33.5145 14.1376 32.9888 14.3788 32.9888 14.3788C32.9888 14.3788 33.3971 14.9906 33.9059 15.0451C34.5757 15.1164 35.1377 14.9774 35.1377 14.9774C35.1377 14.9774 34.6857 14.4818 34.1001 14.3097Z" fill="white"/>
<path id="Vector_35" d="M35.2398 13.1317C34.6609 13.1067 34.2148 13.5046 34.2148 13.5046C34.2148 13.5046 34.8189 13.9428 35.2901 13.8443C35.9089 13.7149 36.2966 13.2773 36.2966 13.2773C36.2966 13.2773 35.7988 13.1553 35.2398 13.1317Z" fill="white"/>
</g>
</g>
</g>
</g>
</svg>
