<svg width="30" height="30" viewBox="0 0 30 30" fill="none" xmlns="http://www.w3.org/2000/svg">
<circle cx="15" cy="15" r="14.5" fill="black" fill-opacity="0.23" stroke="white"/>
<path d="M19.142 8.06201L10.9807 9.41006C10.9542 9.41425 10.9296 9.42191 10.9056 9.43099H10.6108C10.4098 9.43099 10.25 9.59 10.25 9.78597V19.011C9.93158 18.829 9.56128 18.7251 9.16668 18.7251C7.97013 18.7251 7 19.6819 7 20.8626C7 22.0432 7.97013 23 9.16668 23C10.3632 23 11.3334 22.0432 11.3334 20.8625C11.3334 20.776 11.3281 20.691 11.3182 20.608C11.3281 20.5752 11.3334 20.541 11.3334 20.5048V13.0023L18.9167 11.68V16.8728C18.5982 16.6914 18.2279 16.5868 17.8333 16.5868C16.6368 16.5868 15.6667 17.5443 15.6667 18.725C15.6667 19.905 16.6368 20.8625 17.8333 20.8625C19.0299 20.8625 20 19.905 20 18.725C20 18.6386 19.9947 18.5535 19.9848 18.4698C19.9947 18.437 20 18.4028 20 18.3666V8.39186C20 8.21751 19.872 8.07175 19.7034 8.04246C19.6445 8.00621 19.5705 7.99156 19.489 8.00481L19.2972 8.03688H19.2774C19.2295 8.0369 19.1836 8.04596 19.142 8.06201Z" fill="white"/>
</svg>
