<svg width="91" height="23" viewBox="0 0 91 23" fill="none" xmlns="http://www.w3.org/2000/svg">
<g id="Group 123">
<path id="&#231;&#173;&#145;&#230;&#162;&#166;&#231;&#175;&#135;" d="M39.048 20.168L40.368 10.832H37.104L36.744 12.8H39.456L39.408 16.664H36.576L36.624 13.4L35.4 20.168H31.728L33.936 8.84H43.992L42.72 17.912H43.368L44.328 16.664L43.824 20.168H39.048ZM26.376 17.096L27.168 11.504H25.488L25.824 9.128H33.12L32.784 11.504H31.104L30.408 16.424L32.232 16.112L31.896 18.56L23.976 19.88L24.336 17.432L26.376 17.096ZM41.16 4.04H46.128L45.816 6.248H43.512L44.208 7.904H40.56L39.936 6.44L39.192 7.904H35.088L37.224 3.704L36.72 2.936H41.736L41.16 4.04ZM31.584 4.04H36.096L35.784 6.248H33.96L34.632 7.904H30.984L30.384 6.416L29.616 7.904H25.512L27.648 3.704L27.144 2.936H32.16L31.584 4.04ZM53.8301 11.288L53.4221 11.864H64.7741L64.3901 14.648L61.7981 20.192H47.7341L48.0221 18.224H59.4941L61.2941 14H51.9101L50.6621 15.8H46.7021L49.1261 12.2L48.6461 11.288H53.8301ZM60.9341 3.872L60.9581 3.68L60.3101 2.96H64.6541L64.5101 3.872H67.5101L67.2701 5.624H64.2701L63.5501 10.808H59.9741L60.6941 5.624H57.7901L58.0301 3.872H60.9341ZM50.5901 5.624H47.6621L47.9021 3.872H50.8301L50.8781 3.656L50.2301 2.96H54.5741L54.4301 3.872H57.3581L57.1181 5.624H54.1901L53.4701 10.808H49.8941L50.5901 5.624ZM57.2381 14.552L57.8621 17.72H53.7821L53.1581 14.552H57.2381ZM46.7261 10.64L47.8061 6.2H50.2301L49.1261 10.64H46.7261ZM54.1181 10.64L54.4061 6.2H56.7821L56.4701 10.64H54.1181ZM64.3661 10.64L64.4861 6.2H66.8381L66.7181 10.64H64.3661ZM56.9741 10.64L57.8861 6.2H60.1901L59.2781 10.64H56.9741ZM81.2603 7.016L81.5723 7.52H88.8683L88.1723 12.488H73.3403L71.7323 20.144H68.0602L70.7243 7.496H74.3963V7.52H77.9243L77.6123 7.016H81.2603ZM76.7003 12.944V12.968H88.5803L87.7163 19.04C87.6843 19.36 87.5163 19.624 87.2123 19.832C86.9083 20.04 86.5723 20.144 86.2043 20.144H83.3243L84.5483 19.088L84.6923 17.936H83.9483L83.6843 19.808H80.5403L80.8043 17.936H80.0123L79.7483 19.76H76.5563L76.8203 17.936H76.0043L75.6923 20.168H72.5243L73.5323 12.944H76.7003ZM85.3403 3.8H90.3563L90.1163 5.384H87.8363L88.5803 6.584H84.9323L84.2603 5.504L83.5643 6.584H79.4603L81.4283 3.512L80.8763 2.96H85.8923L85.3403 3.8ZM75.7883 3.776H80.3243L80.0843 5.384H78.2603L79.0043 6.584H75.3563L74.6843 5.504L73.9883 6.584H69.8843L71.8523 3.512L71.3003 2.96H76.3163L75.7883 3.776ZM73.9643 9.536L73.7483 10.52H84.6443L84.7883 9.536H73.9643ZM76.2443 16.088H77.0843L77.2763 14.768H76.4363L76.2443 16.088ZM80.2762 16.088H81.0443L81.2363 14.768H80.4683L80.2762 16.088ZM84.3803 14.768L84.1883 16.088H84.9563L85.1483 14.768H84.3803Z" fill="black"/>
<path id="/" d="M2.10581 20.72L8.56181 2.624H9.90581L3.47381 20.72H2.10581Z" fill="black"/>
</g>
</svg>
