<svg width="83" height="23" viewBox="0 0 83 23" fill="none" xmlns="http://www.w3.org/2000/svg">
<g id="Group 76">
<path id="&#230;&#181;&#129;&#229;&#133;&#137;&#231;&#175;&#135;" d="M34.1908 11.144L34.0228 10.712L24.1588 11.144L24.4708 8.864L26.6068 6.584H24.3268L24.6628 4.304H29.6548L29.7268 3.848L28.9588 2.936H33.9748L33.7588 4.304H38.3428L38.0068 6.584H30.7108L28.7428 8.672L33.2068 8.48L32.8708 7.496H36.5188L37.8388 11.144H34.1908ZM36.7828 20.216H31.5268L32.7508 11.6H35.9428L35.1028 17.528H36.2548L37.3108 16.616L36.7828 20.216ZM16.4788 20.216L18.8068 13.424H22.9108L20.5828 20.216H16.4788ZM22.1908 20.216L24.9988 11.6H28.1908L25.3828 20.216H22.1908ZM27.4228 20.216L28.6468 11.6H31.8388L30.6148 20.216H27.4228ZM18.9508 12.512L18.6148 8.408H22.7188L23.0548 12.512H18.9508ZM19.6468 7.496L19.3108 3.392H23.4148L23.7508 7.496H19.6468ZM48.1329 10.472L49.0689 3.872L48.2769 2.96H53.7489L52.6929 10.472H59.5329L59.2209 12.728H56.4609L55.8369 17.312H58.1169L59.1489 16.4L58.6449 20L50.8449 20.024L51.9009 12.728H47.7729L43.5969 20H39.0369L43.2129 12.728H40.0689L40.3809 10.472H48.1329ZM55.7889 4.784L55.1649 4.088H59.9649L57.5649 9.776H53.7009L55.7889 4.784ZM47.3169 9.776H43.4529L42.7329 4.76L42.1569 4.088H46.5249L47.3169 9.776ZM73.6431 7.016L73.9551 7.52H81.2511L80.5551 12.488H65.7231L64.1151 20.144H60.4431L63.1071 7.496H66.7791V7.52H70.3071L69.9951 7.016H73.6431ZM69.0831 12.944V12.968H80.9631L80.0991 19.04C80.0671 19.36 79.8991 19.624 79.5951 19.832C79.2911 20.04 78.9551 20.144 78.5871 20.144H75.7071L76.9311 19.088L77.0751 17.936H76.3311L76.0671 19.808H72.9231L73.1871 17.936H72.3951L72.1311 19.76H68.9391L69.2031 17.936H68.3871L68.0751 20.168H64.9071L65.9151 12.944H69.0831ZM77.7231 3.8H82.7391L82.4991 5.384H80.2191L80.9631 6.584H77.3151L76.6431 5.504L75.9471 6.584H71.8431L73.8111 3.512L73.2591 2.96H78.2751L77.7231 3.8ZM68.1711 3.776H72.7071L72.4671 5.384H70.6431L71.3871 6.584H67.7391L67.0671 5.504L66.3711 6.584H62.2671L64.2351 3.512L63.6831 2.96H68.6991L68.1711 3.776ZM66.3471 9.536L66.1311 10.52H77.0271L77.1711 9.536H66.3471ZM68.6271 16.088H69.4671L69.6591 14.768H68.8191L68.6271 16.088ZM72.6591 16.088H73.4271L73.6191 14.768H72.8511L72.6591 16.088ZM76.7631 14.768L76.5711 16.088H77.3391L77.5311 14.768H76.7631Z" fill="black"/>
<path id="/" d="M2.10581 20.72L8.56181 2.624H9.90581L3.47381 20.72H2.10581Z" fill="black"/>
</g>
</svg>
