<svg width="83" height="23" viewBox="0 0 83 23" fill="none" xmlns="http://www.w3.org/2000/svg">
<g id="Group 122">
<path id="&#231;&#171;&#158;&#232;&#136;&#170;&#231;&#175;&#135;" d="M35.7508 10.232L35.0548 15.224H33.2548L32.8948 17.744H35.8468L36.8788 16.952L36.4468 20H28.0228L28.6948 15.224H25.8628L21.8308 20H16.8388L20.8708 15.224H19.1188L19.8148 10.232H35.7508ZM26.1748 7.712H30.0628L30.8068 6.512H35.3668L34.6228 7.712H37.9348L37.6468 9.8H17.8228L18.1108 7.712H21.6148L21.2548 6.512H25.8148L26.1748 7.712ZM26.3668 4.136L26.4148 3.824L25.8628 2.936H31.0948L30.9028 4.136H37.9828L37.6948 6.224H18.7828L19.0708 4.136H26.3668ZM23.7028 13.304H30.9988L31.1668 12.152H23.8708L23.7028 13.304ZM39.9969 12.752H39.5409L39.8769 10.4H40.4049L41.1969 5.768L41.0049 4.256H43.1889L43.5729 3.368L43.3329 2.96H46.9329L46.3329 4.256H49.4289L48.5649 10.4H49.1169L48.7809 12.752H48.2289L47.3169 19.352C47.2689 19.624 47.1649 19.832 47.0049 19.976C46.8449 20.104 46.6609 20.168 46.4529 20.168H43.0209L44.5569 18.512L45.3729 12.752H42.7329L41.4849 20.168H38.7249L39.9969 12.752ZM53.5089 20.192L54.8289 10.928H53.2689L51.0849 20.192H47.6049L50.2209 8.384H58.7169L57.4209 17.48H58.0929L59.0769 16.568L58.5489 20.192H53.5089ZM53.1489 4.952L53.3169 3.872L52.7169 2.96H57.5889L57.2769 4.952H60.2769L59.9409 7.256H49.4049L49.7409 4.952H53.1489ZM43.1409 10.4H45.7089L46.2849 6.344H43.8369L43.1409 10.4ZM42.8049 13.4H44.7009L44.5329 17.072H42.5649L42.8049 13.4ZM43.8369 7.016H45.7329L45.6849 9.776H43.7169L43.8369 7.016ZM73.6431 7.016L73.9551 7.52H81.2511L80.5551 12.488H65.7231L64.1151 20.144H60.4431L63.1071 7.496H66.7791V7.52H70.3071L69.9951 7.016H73.6431ZM69.0831 12.944V12.968H80.9631L80.0991 19.04C80.0671 19.36 79.8991 19.624 79.5951 19.832C79.2911 20.04 78.9551 20.144 78.5871 20.144H75.7071L76.9311 19.088L77.0751 17.936H76.3311L76.0671 19.808H72.9231L73.1871 17.936H72.3951L72.1311 19.76H68.9391L69.2031 17.936H68.3871L68.0751 20.168H64.9071L65.9151 12.944H69.0831ZM77.7231 3.8H82.7391L82.4991 5.384H80.2191L80.9631 6.584H77.3151L76.6431 5.504L75.9471 6.584H71.8431L73.8111 3.512L73.2591 2.96H78.2751L77.7231 3.8ZM68.1711 3.776H72.7071L72.4671 5.384H70.6431L71.3871 6.584H67.7391L67.0671 5.504L66.3711 6.584H62.2671L64.2351 3.512L63.6831 2.96H68.6991L68.1711 3.776ZM66.3471 9.536L66.1311 10.52H77.0271L77.1711 9.536H66.3471ZM68.6271 16.088H69.4671L69.6591 14.768H68.8191L68.6271 16.088ZM72.6591 16.088H73.4271L73.6191 14.768H72.8511L72.6591 16.088ZM76.7631 14.768L76.5711 16.088H77.3391L77.5311 14.768H76.7631Z" fill="black"/>
<path id="/" d="M2.10581 20.72L8.56181 2.624H9.90581L3.47381 20.72H2.10581Z" fill="black"/>
</g>
</svg>
