<svg width="83" height="23" viewBox="0 0 83 23" fill="none" xmlns="http://www.w3.org/2000/svg">
<g id="Group 127">
<path id="&#233;&#128;&#129;&#229;&#136;&#171;&#231;&#175;&#135;" d="M27.4948 9.944L28.7428 7.928H25.1428L25.4788 5.648H27.5188L27.3508 3.728L26.6788 2.96H30.5908L30.7828 5.648H32.7748L33.7348 2.96H36.9508L35.9908 5.648H37.7428L37.4068 7.928H33.0388L31.8388 9.944H37.6228L37.3108 12.224H34.4308L36.6628 16.808H32.7508L30.5188 12.224H30.4708L27.9028 16.568H23.4628L26.1028 12.224H24.0628L24.3748 9.944H27.4948ZM17.1028 19.808L18.3508 17.432L19.4308 9.608H18.5188L18.8548 7.328H23.8708L22.5268 16.784L25.8628 17.528H37.0228L36.7108 19.808H23.9428L21.5668 19.112L21.2068 19.808H17.1028ZM23.1508 3.392L23.9188 6.416H20.1748L19.4068 3.392H23.1508ZM51.8049 3.392L50.9169 9.776H47.2449L46.6449 11.144H50.7249L49.6689 18.632C49.6049 19.096 49.3969 19.48 49.0449 19.784C48.6929 20.072 48.2849 20.216 47.8209 20.216H44.4369L46.1169 17.984L46.7649 13.424H45.6129L42.6129 20.216H38.5089L41.5089 13.424H39.9249L40.2369 11.144H42.5409L43.1409 9.776H40.4289L41.3169 3.392H51.8049ZM60.4689 3.392L58.3329 18.632C58.2689 19.096 58.0609 19.48 57.7089 19.784C57.3569 20.072 56.9489 20.216 56.4849 20.216H52.4289L54.5409 17.984L56.4849 4.088L55.9089 3.392H60.4689ZM55.4289 5.216L53.7009 17.528H50.9889L52.7169 5.216H55.4289ZM44.4129 5.672L44.1489 7.496H47.7969L48.0609 5.672H44.4129ZM73.6431 7.016L73.9551 7.52H81.2511L80.5551 12.488H65.7231L64.1151 20.144H60.4431L63.1071 7.496H66.7791V7.52H70.3071L69.9951 7.016H73.6431ZM69.0831 12.944V12.968H80.9631L80.0991 19.04C80.0671 19.36 79.8991 19.624 79.5951 19.832C79.2911 20.04 78.9551 20.144 78.5871 20.144H75.7071L76.9311 19.088L77.0751 17.936H76.3311L76.0671 19.808H72.9231L73.1871 17.936H72.3951L72.1311 19.76H68.9391L69.2031 17.936H68.3871L68.0751 20.168H64.9071L65.9151 12.944H69.0831ZM77.7231 3.8H82.7391L82.4991 5.384H80.2191L80.9631 6.584H77.3151L76.6431 5.504L75.9471 6.584H71.8431L73.8111 3.512L73.2591 2.96H78.2751L77.7231 3.8ZM68.1711 3.776H72.7071L72.4671 5.384H70.6431L71.3871 6.584H67.7391L67.0671 5.504L66.3711 6.584H62.2671L64.2351 3.512L63.6831 2.96H68.6991L68.1711 3.776ZM66.3471 9.536L66.1311 10.52H77.0271L77.1711 9.536H66.3471ZM68.6271 16.088H69.4671L69.6591 14.768H68.8191L68.6271 16.088ZM72.6591 16.088H73.4271L73.6191 14.768H72.8511L72.6591 16.088ZM76.7631 14.768L76.5711 16.088H77.3391L77.5311 14.768H76.7631Z" fill="white"/>
<path id="/" d="M2.10581 20.72L8.56181 2.624H9.90581L3.47381 20.72H2.10581Z" fill="white"/>
</g>
</svg>
