<svg width="83" height="23" viewBox="0 0 83 23" fill="none" xmlns="http://www.w3.org/2000/svg">
<g id="Group 78">
<path id="&#233;&#157;&#146;&#232;&#161;&#191;&#231;&#175;&#135;" d="M35.9668 11.144L34.9828 18.176C34.9188 18.64 34.7028 19.032 34.3348 19.352C33.9828 19.656 33.5828 19.808 33.1348 19.808H29.2948L30.9028 18.104L30.9748 17.528H21.8548L21.5428 19.784H17.4388L18.6388 11.144H35.9668ZM25.6708 6.584L25.7188 6.128H18.9028L19.1428 4.304H25.9828L26.0548 3.848L25.2628 2.936H30.7348L30.5428 4.304H37.3828L37.1428 6.128H30.2788L30.2068 6.584H36.1588L35.8948 8.408H29.9668L29.8948 8.864H37.2148L36.9508 10.688H17.7988L18.0628 8.864H25.3348L25.4068 8.408H19.0228L19.2868 6.584H25.6708ZM22.4308 13.424H31.5508L31.6228 12.968H22.5028L22.4308 13.424ZM22.1188 15.704H31.2388L31.2868 15.248H22.1668L22.1188 15.704ZM46.7889 17.144L45.0369 14.912L44.2929 20.192H40.4529L41.2449 14.576H39.2049L43.8609 8.072H40.3569L40.6689 5.816H47.7489L47.3409 8.768L45.5409 11.264V11.288L47.9649 9.68L47.5569 12.68L46.7409 13.232L47.2449 13.88L46.7889 17.144ZM57.8529 2.984L59.7729 10.16H56.4129L55.0209 5.048H53.9409L51.4449 10.4H48.1089L51.2769 3.632L50.7249 2.984H57.8529ZM58.9089 11.792L58.5729 14.168L54.1089 20.168H49.7889L54.7569 14.168H47.9649L48.3009 11.792H58.9089ZM47.1009 5.408H43.7169L43.2129 3.56L42.7089 2.984H46.5009L47.1009 5.408ZM56.0529 11.192L53.1489 11.216L52.6689 8.408H55.5969L56.0529 11.192ZM73.6431 7.016L73.9551 7.52H81.2511L80.5551 12.488H65.7231L64.1151 20.144H60.4431L63.1071 7.496H66.7791V7.52H70.3071L69.9951 7.016H73.6431ZM69.0831 12.944V12.968H80.9631L80.0991 19.04C80.0671 19.36 79.8991 19.624 79.5951 19.832C79.2911 20.04 78.9551 20.144 78.5871 20.144H75.7071L76.9311 19.088L77.0751 17.936H76.3311L76.0671 19.808H72.9231L73.1871 17.936H72.3951L72.1311 19.76H68.9391L69.2031 17.936H68.3871L68.0751 20.168H64.9071L65.9151 12.944H69.0831ZM77.7231 3.8H82.7391L82.4991 5.384H80.2191L80.9631 6.584H77.3151L76.6431 5.504L75.9471 6.584H71.8431L73.8111 3.512L73.2591 2.96H78.2751L77.7231 3.8ZM68.1711 3.776H72.7071L72.4671 5.384H70.6431L71.3871 6.584H67.7391L67.0671 5.504L66.3711 6.584H62.2671L64.2351 3.512L63.6831 2.96H68.6991L68.1711 3.776ZM66.3471 9.536L66.1311 10.52H77.0271L77.1711 9.536H66.3471ZM68.6271 16.088H69.4671L69.6591 14.768H68.8191L68.6271 16.088ZM72.6591 16.088H73.4271L73.6191 14.768H72.8511L72.6591 16.088ZM76.7631 14.768L76.5711 16.088H77.3391L77.5311 14.768H76.7631Z" fill="white"/>
<path id="/" d="M2.10581 20.72L8.56181 2.624H9.90581L3.47381 20.72H2.10581Z" fill="white"/>
</g>
</svg>
