<svg width="74" height="16" viewBox="0 0 74 16" fill="none" xmlns="http://www.w3.org/2000/svg">
<path id="&#228;&#185;&#166;&#230;&#181;&#183;&#233;&#128;&#144;&#229;&#133;&#137;" d="M17.08 0.779999L17.92 3.82H16.02L15.56 7.22H17.06L16.24 13.1C16.1867 13.4867 16.0133 13.8133 15.72 14.08C15.4267 14.3333 15.0867 14.46 14.7 14.46H10.74L12.52 12.56L13 9.14H8.82L7.96 15.18H4.16L5 9.14H0.46L0.72 7.22H5.28L5.72 4.02H1.94L2.2 2.12H6L6.08 1.54L5.44 0.779999H10L9.8 2.12H13.4L13.04 0.779999H17.08ZM9.54 4.02L9.08 7.22H11.76L12.2 4.02H9.54ZM30.0384 0.779999L29.5384 1.6H36.5184L36.2584 3.4H28.4584L27.9984 4.14H35.8784L35.4184 7.48H36.2384L35.9784 9.32H35.1584L34.9184 11H35.4384L35.1984 12.72H34.6784L34.5184 13.8C34.4651 14.1867 34.3251 14.5133 34.0984 14.78C33.8718 15.0333 33.6251 15.16 33.3584 15.16H27.0984L28.9584 13.34H31.6384L31.7384 12.72H24.5984L25.0784 9.32H23.8784L24.1384 7.48H25.3384L25.6384 5.32H24.0384L26.4584 1.48L25.7784 0.779999H30.0384ZM18.6784 15.16L20.4784 9.5H23.4584L21.6784 15.16H18.6784ZM20.5184 8.74L20.3384 5.32H23.3184L23.5184 8.74H20.5184ZM21.0984 4.58L20.9184 1.16H23.8984L24.0984 4.58H21.0984ZM28.2784 7.58H29.3184L29.1984 6.3H31.5584L31.6784 7.58H32.4584L32.6984 5.82H28.5184L28.2784 7.58ZM32.2184 9.22H28.0384L27.7984 11.02H28.9384L28.7984 9.7H31.2584L31.3984 11.02H31.9784L32.2184 9.22ZM37.1969 14.84L38.2369 12.86L39.1569 6.3H38.3969L38.6569 4.4H42.8369L42.6969 5.32L46.7169 2.96H43.5369L43.7969 1.18H54.7769L54.5169 2.96H50.2969L51.1369 5L54.7569 3.8L54.4569 5.88L52.5169 6.52L54.0369 11.62H51.4969L50.7969 8.52L50.4169 11.32C50.3502 11.7067 50.1702 11.9867 49.8769 12.16C49.5969 12.32 49.2702 12.4 48.8969 12.4H45.3569L47.3769 10.7L47.4769 9.96L45.8569 10.94H42.2169L47.7769 7.78L47.8969 7.04L46.0569 8H42.4369L47.4369 5.36L47.2569 4.74L45.8969 5.48H42.6769L41.7569 12.12L44.4969 12.94H53.7969L53.5369 14.84H42.8969L40.9169 14.26L40.6169 14.84H37.1969ZM42.2569 1.16L42.9769 3.44H39.9369L39.2169 1.16H42.2569ZM63.2553 7.06L64.0353 1.56L63.3753 0.799999H67.9353L67.0553 7.06H72.7553L72.4953 8.94H70.1953L69.6753 12.76H71.5753L72.4353 12L72.0153 15L65.5153 15.02L66.3953 8.94H62.9553L59.4753 15H55.6753L59.1553 8.94H56.5353L56.7953 7.06H63.2553ZM69.6353 2.32L69.1153 1.74H73.1153L71.1153 6.48H67.8953L69.6353 2.32ZM62.5753 6.48H59.3553L58.7553 2.3L58.2753 1.74H61.9153L62.5753 6.48Z" fill="black"/>
</svg>
