<svg width="67" height="19" viewBox="0 0 67 19" fill="none" xmlns="http://www.w3.org/2000/svg">
<path id="&#229;&#136;&#157;&#232;&#167;&#129;&#231;&#175;&#135;" d="M8.73481 17.76L12.5028 4.08H10.3428L10.6788 1.824H21.9828L19.9188 16.488C19.8708 16.824 19.7028 17.112 19.4148 17.352C19.1428 17.592 18.8388 17.712 18.5028 17.712H14.6868L16.3188 15.984L17.9748 4.08H16.4628L12.9588 17.76H8.73481ZM8.66281 14.88L7.15081 12.984L6.43081 18.192H2.83081L3.59881 12.768H0.862813L5.54281 6.144H2.03881L2.35081 4.008H9.43081L8.99881 6.96L7.58281 8.928L9.86281 7.416L9.43081 10.416L8.59081 10.968L9.11881 11.616L8.66281 14.88ZM8.32681 3.504H5.18281L4.67881 1.56L4.17481 0.983999H7.72681L8.32681 3.504ZM44.2289 1.392L42.8849 10.968H38.3249L39.3569 3.672H30.2369L29.6849 7.608L27.1649 10.968H24.6449L25.8689 2.304L25.0769 1.392H44.2289ZM37.3409 5.04L27.7889 17.784H22.7729L32.3249 5.04H37.3409ZM32.2049 17.808L33.9809 11.424H38.5409L37.5089 15.072H41.7329L42.7649 14.16L42.2609 17.808H32.2049ZM57.6431 5.016L57.9551 5.52H65.2511L64.5551 10.488H49.7231L48.1151 18.144H44.4431L47.1071 5.496H50.7791V5.52H54.3071L53.9951 5.016H57.6431ZM53.0831 10.944V10.968H64.9631L64.0991 17.04C64.0671 17.36 63.8991 17.624 63.5951 17.832C63.2911 18.04 62.9551 18.144 62.5871 18.144H59.7071L60.9311 17.088L61.0751 15.936H60.3311L60.0671 17.808H56.9231L57.1871 15.936H56.3951L56.1311 17.76H52.9391L53.2031 15.936H52.3871L52.0751 18.168H48.9071L49.9151 10.944H53.0831ZM61.7231 1.8H66.7391L66.4991 3.384H64.2191L64.9631 4.584H61.3151L60.6431 3.504L59.9471 4.584H55.8431L57.8111 1.512L57.2591 0.959999H62.2751L61.7231 1.8ZM52.1711 1.776H56.7071L56.4671 3.384H54.6431L55.3871 4.584H51.7391L51.0671 3.504L50.3711 4.584H46.2671L48.2351 1.512L47.6831 0.959999H52.6991L52.1711 1.776ZM50.3471 7.536L50.1311 8.52H61.0271L61.1711 7.536H50.3471ZM52.6271 14.088H53.4671L53.6591 12.768H52.8191L52.6271 14.088ZM56.6591 14.088H57.4271L57.6191 12.768H56.8511L56.6591 14.088ZM60.7631 12.768L60.5711 14.088H61.3391L61.5311 12.768H60.7631Z" fill="black"/>
</svg>
