<svg width="74" height="16" viewBox="0 0 74 16" fill="none" xmlns="http://www.w3.org/2000/svg">
<path id="&#229;&#143;&#140;&#231;&#168;&#139;&#230;&#153;&#168;&#230;&#154;&#174;" d="M13.0031 3.84L12.8231 5.16L13.5831 6.98L15.5031 4L15.6231 3.12H10.3831L10.6631 1.18H18.5031L18.0231 4.54L15.0031 9.34L17.2631 14.76H14.5231L13.3231 11.88L11.5031 14.76H6.10313L5.00313 12.12L3.34313 14.76H0.303125L3.72313 9.44L1.96313 5.2L2.16313 3.84H4.86313L4.68313 5.16L5.38313 6.86L7.22313 4L7.34313 3.12H2.10313L2.38313 1.18H10.2231L9.74313 4.54L6.64313 9.5L8.68313 14.4L11.8831 9.46L10.1031 5.2L10.3031 3.84H13.0031ZM29.3816 10.04L29.5416 8.82H26.5416L26.7816 7.08H36.3016L36.0616 8.82H33.0216L32.8616 10.04H35.5216L35.2616 11.86H32.6016L32.3816 13.36H35.5616L35.3016 15.12H25.5416L25.8016 13.36H28.9016L29.1216 11.86H26.4816L26.7416 10.04H29.3816ZM26.7216 2.8L25.2616 2.94L25.0016 4.82H26.7216L26.4616 6.66H24.5216L23.3216 15.18H20.6816L21.8816 6.66H19.8416L20.1016 4.82H21.9216L22.1616 3.22L20.4416 3.38L20.7016 1.54L26.9816 0.96L26.7216 2.8ZM28.0016 1.16H36.8416L36.1216 6.3H27.2816L28.0016 1.16ZM18.7416 14.46L20.0216 7.42H21.7216L20.4416 14.46H18.7416ZM23.8016 14.46L24.5216 7.42H26.2216L25.5016 14.46H23.8016ZM33.3616 4.56L33.5816 2.9H30.7416L30.5216 4.56H33.3616ZM54.64 6.36L54.44 7.8H41.96L41.88 8.2H54.42L54.22 9.54H41.64L41.58 9.94H54.16L53.94 11.58H50.74L51.44 12.36L53.88 11.96L53.68 13.36L52.52 13.54L53.98 15.14H49.76L46.74 11.58H45.56L45.34 13.12L46.88 12.86L46.64 14.5L41.8 15.14L42.3 11.58H41.28L40.66 15.18H37.46L39 6.36H54.64ZM40.4 1.88L39.78 1.12H54.94L54.28 5.88H39.84L40.4 1.88ZM43.06 3.04H51.96L52.06 2.38H43.16L43.06 3.04ZM51.74 4.6L51.82 4.02H42.92L42.84 4.6H51.74ZM57.8584 3.34H72.1184L71.4584 7.96H64.8984L64.3984 8.34H72.6584L72.4384 9.98H70.3984L70.8984 10.48H70.9184V10.5L72.1984 11.78H70.7384L70.2784 15.14H57.6184L58.0784 11.74H55.5984L57.9984 9.98H55.8184L56.0384 8.34H60.2384L60.7584 7.96H57.1984L57.8584 3.34ZM60.4184 3H56.7584L56.9584 1.54H60.6184L60.0184 0.799999H64.1584L64.0584 1.54H66.5584L65.9584 0.799999H70.0984L69.9984 1.54H73.5984L73.3984 3H69.7984L69.7584 3.26H66.3384L66.3784 3H63.8384L63.8184 3.24H60.3984L60.4184 3ZM60.7984 4.5L60.7184 5.08H68.8384L68.9184 4.5H60.7984ZM68.5984 6.78L68.6784 6.22H60.5584L60.4784 6.78H68.5984ZM61.1184 12.28H67.4984L67.5784 11.7H61.1984L61.1184 12.28ZM67.2784 13.84L67.3384 13.36H60.9584L60.8984 13.84H67.2784ZM61.5384 10.48H67.0984L66.6184 9.98H62.1984L61.5384 10.48Z" fill="black"/>
</svg>
