<svg width="67" height="19" viewBox="0 0 67 19" fill="none" xmlns="http://www.w3.org/2000/svg">
<path id="&#229;&#144;&#140;&#231;&#170;&#151;&#231;&#175;&#135;" d="M21.552 1.368L19.392 16.8C19.328 17.2 19.12 17.536 18.768 17.808C18.432 18.064 18.072 18.192 17.688 18.192H13.632L15.792 16.008L17.52 3.648H6.264L4.224 18.144H0.504L2.736 2.28L2.04 1.368H21.552ZM16.08 4.848L15.768 7.032H6.744L7.056 4.848H16.08ZM15.648 8.232L14.712 15H5.616L6.552 8.232H15.648ZM11.64 12.96L12.024 10.296H9.6L9.216 12.96H11.64ZM40.9181 17.808H22.6781L24.1421 7.272H29.1581L30.1181 6.336H34.7501L33.7901 7.272H42.3821L40.9181 17.808ZM37.5101 16.104L38.4941 8.976H27.7901L26.8061 16.104H37.5101ZM38.7341 4.896L38.8541 4.104H28.6301L28.5101 4.896H31.2221L28.6781 6.504H24.1181L26.0381 5.28H24.0461L24.5021 1.992H31.7021L31.7501 1.728L30.9101 0.935999H36.4781L36.3341 1.992H43.5341L43.0781 5.28H41.0861L42.6941 6.504H38.0381L35.9261 4.896H38.7341ZM32.7821 12.48L34.5341 11.352H31.9421L31.6781 11.736H28.2221L29.9501 9.288H33.4541L32.9981 9.912H37.3901L37.1021 11.976L34.3661 13.776L36.8621 15.792H33.4781L32.4941 15L31.2461 15.84H27.6941L27.9101 14.4H29.7821L30.8861 13.704L28.9661 12.12H32.3501L32.7821 12.48ZM57.2603 5.016L57.5723 5.52H64.8683L64.1723 10.488H49.3403L47.7323 18.144H44.0602L46.7243 5.496H50.3963V5.52H53.9243L53.6123 5.016H57.2603ZM52.7003 10.944V10.968H64.5803L63.7163 17.04C63.6843 17.36 63.5163 17.624 63.2123 17.832C62.9083 18.04 62.5723 18.144 62.2043 18.144H59.3243L60.5483 17.088L60.6923 15.936H59.9483L59.6843 17.808H56.5403L56.8043 15.936H56.0123L55.7483 17.76H52.5563L52.8203 15.936H52.0043L51.6923 18.168H48.5243L49.5323 10.944H52.7003ZM61.3403 1.8H66.3563L66.1163 3.384H63.8363L64.5803 4.584H60.9323L60.2603 3.504L59.5643 4.584H55.4603L57.4283 1.512L56.8763 0.959999H61.8923L61.3403 1.8ZM51.7883 1.776H56.3243L56.0843 3.384H54.2603L55.0043 4.584H51.3563L50.6843 3.504L49.9883 4.584H45.8843L47.8523 1.512L47.3003 0.959999H52.3163L51.7883 1.776ZM49.9643 7.536L49.7483 8.52H60.6443L60.7883 7.536H49.9643ZM52.2443 14.088H53.0843L53.2763 12.768H52.4363L52.2443 14.088ZM56.2762 14.088H57.0443L57.2363 12.768H56.4683L56.2762 14.088ZM60.3803 12.768L60.1883 14.088H60.9563L61.1483 12.768H60.3803Z" fill="black"/>
</svg>
