<svg width="74" height="16" viewBox="0 0 74 16" fill="none" xmlns="http://www.w3.org/2000/svg">
<path id="&#229;&#173;&#166;&#230;&#181;&#183;&#230;&#183;&#172;&#231;&#191;&#188;" d="M7.30313 9.52L7.42313 8.76L11.8431 7.44H3.04313L3.30313 5.54H16.6031L16.2831 7.8L11.1031 9.52H17.5631L17.3031 11.42H10.8431L10.5031 13.86C10.4365 14.2467 10.2565 14.5667 9.96313 14.82C9.66979 15.06 9.32979 15.18 8.94313 15.18H5.00313L6.76313 13.34L7.04313 11.42H0.583125L0.843125 9.52H7.30313ZM17.6631 0.779999L17.0631 2.3H18.2031L17.8231 4.96H13.6431L13.7631 4.2H6.16313L6.04313 4.96H1.86313L2.24313 2.3H3.40313L3.22313 0.779999H7.02313L7.20313 2.3H8.32313L8.16313 0.779999H11.9631L12.1231 2.3H13.2631L13.8631 0.779999H17.6631ZM30.2416 0.779999L29.7416 1.6H36.7216L36.4616 3.4H28.6616L28.2016 4.14H36.0816L35.6216 7.48H36.4416L36.1816 9.32H35.3616L35.1216 11H35.6416L35.4016 12.72H34.8816L34.7216 13.8C34.6682 14.1867 34.5282 14.5133 34.3016 14.78C34.0749 15.0333 33.8282 15.16 33.5616 15.16H27.3016L29.1616 13.34H31.8416L31.9416 12.72H24.8016L25.2816 9.32H24.0816L24.3416 7.48H25.5416L25.8416 5.32H24.2416L26.6616 1.48L25.9816 0.779999H30.2416ZM18.8816 15.16L20.6816 9.5H23.6616L21.8816 15.16H18.8816ZM20.7216 8.74L20.5416 5.32H23.5216L23.7216 8.74H20.7216ZM21.3016 4.58L21.1216 1.16H24.1016L24.3016 4.58H21.3016ZM28.4816 7.58H29.5216L29.4016 6.3H31.7616L31.8816 7.58H32.6616L32.9016 5.82H28.7216L28.4816 7.58ZM32.4216 9.22H28.2416L28.0016 11.02H29.1416L29.0016 9.7H31.4616L31.6016 11.02H32.1816L32.4216 9.22ZM50.7 9.14L50.56 10.04H54.54L54.26 11.92H50.3L49.86 15.14H46.36L46.8 11.92H42.5L42.78 10.04H47.06L47.2 9.14H50.7ZM48.2 1.92L48.26 1.58L47.52 0.799999H51.88L51.72 1.92H55.24L54.98 3.74H44.06L44.32 1.92H48.2ZM37.14 15.16L39.04 9.5H42.38L40.48 15.16H37.14ZM46.32 7.44L45.76 8.76H42.98L44.74 4.24H47.7L47.04 5.78H48.16L48.7 8.48H46.54L46.32 7.44ZM52.28 7.58L51.82 8.74H48.94L50.82 4.24H53.64L53.02 5.78H54.04L54.68 8.48H52.54L52.28 7.58ZM39.1 8.74L38.84 5.32H42.18L42.44 8.74H39.1ZM39.68 4.58L39.42 1.16H42.76L43.02 4.58H39.68ZM59.4984 10.3L59.5584 9.82H57.3184L57.9584 5.36H72.7184L72.0784 9.82H69.4584L69.3984 10.3H72.3984L72.2184 11.58H69.2184L69.1584 11.98H72.5984L72.4184 13.32H55.7584L55.9384 11.98H59.2584L59.3184 11.58H56.3384L56.5184 10.3H59.4984ZM70.6184 2.52H65.9184L66.0984 1.18H73.6784L73.1384 5.04H70.2584L70.6184 2.52ZM62.3184 5.04L62.6784 2.52H57.5984L57.7784 1.18H65.5784L65.0384 5.04H62.3184ZM55.5184 15.14L58.2984 13.64H62.0984L59.5984 15.14H55.5184ZM67.9584 15.14L66.5584 13.66H70.3784L72.1184 15.14H67.9584ZM61.5584 3.92L60.6984 5.04H57.6784L58.6784 3.92H61.5584ZM69.5184 3.94L68.7384 5.04H65.9384L66.7984 3.94H69.5184ZM61.0184 2.74L61.5384 3.7H58.6784L57.9784 2.74H61.0184ZM68.9784 2.76L69.5384 3.72H66.8184L66.2584 2.76H68.9784ZM62.5384 10.3H66.3584L66.4184 9.82H62.5984L62.5384 10.3ZM69.1984 8.66L69.2584 8.14H66.2384L66.1584 8.66H69.1984ZM62.2984 11.98H66.1184L66.1784 11.58H62.3584L62.2984 11.98ZM66.4784 6.5L66.3984 7H69.4184L69.4984 6.5H66.4784ZM63.1384 8.66L63.2184 8.14H60.6184L60.5584 8.66H63.1384ZM60.7784 7H63.3784L63.4584 6.5H60.8584L60.7784 7Z" fill="black"/>
</svg>
