<svg width="74" height="16" viewBox="0 0 74 16" fill="none" xmlns="http://www.w3.org/2000/svg">
<path id="&#229;&#178;&#129;&#230;&#156;&#136;&#231;&#149;&#153;&#231;&#151;&#149;" d="M9.02313 9.48L9.92313 11.62L12.9631 8.3H5.96313L5.02313 9.44H1.22313L4.16313 6.02L3.76313 5.32H8.40313L7.42313 6.52H16.8631L16.5031 9.14L11.0231 15.16H0.643125L0.903125 13.34H8.34313L9.12313 12.48H6.86313L5.56313 9.48H9.02313ZM6.26313 3.04H8.44313L8.64313 1.54L7.98313 0.799999H12.5631L12.2431 3.04H14.4231L14.6631 1.36H18.1431L17.6431 4.8H2.50313L3.00313 1.36H6.50313L6.26313 3.04ZM21.8016 1.88L21.1816 1.16H36.3816L34.6016 13.86C34.5482 14.2467 34.3682 14.5667 34.0616 14.82C33.7682 15.06 33.4349 15.18 33.0616 15.18H29.1016L30.8816 13.32L31.2416 10.66H23.9016L23.0216 15.18H19.2216L21.8016 1.88ZM24.2616 8.76H31.5216L31.7816 6.86H24.6416L24.2616 8.76ZM25.0016 4.96H32.0416L32.3216 3.06H25.3816L25.0016 4.96ZM38.32 7.8H54.12L53.14 14.82H37.34L38.32 7.8ZM51.22 6.38L51.74 2.76H50.6L49.28 7.18H46.32L47.64 2.76H46.58L46.8 1.18H55.06L54.32 6.4C54.2933 6.61333 54.2 6.8 54.04 6.96C53.88 7.10667 53.72 7.18 53.56 7.18H50.36L51.22 6.38ZM46.02 3.44L46.04 7.18H43.74V6.72L38.34 7.58L39.18 1.54L45.94 1.12L45.72 2.68L42.36 2.94L42.04 5.24L43.72 4.94L43.7 3.44H46.02ZM41.46 10.64H43.94L44.1 9.46H41.64L41.46 10.64ZM48.08 9.46L47.92 10.64H50.32L50.5 9.46H48.08ZM41.1 13.22H43.56L43.72 12.16H41.24L41.1 13.22ZM50.1 12.16H47.7L47.54 13.22H49.96L50.1 12.16ZM72.0784 12.18L70.5184 12.46L71.8184 15.18H68.0784L65.4784 9.74H64.9984L64.4784 13.42L66.4784 13.24L66.2784 14.76L60.6984 15.18L62.2784 3.96H73.0184L72.2184 9.74H69.2384L69.8584 11.08L72.2784 10.66L72.0784 12.18ZM55.5184 12.48L56.9984 7.96H58.3384L58.4984 7.1H57.0384L56.7384 4.16H58.6184L58.7984 5.48L59.3784 2.38L58.7784 1.74H64.9584L64.9784 1.56L64.3384 0.819999H69.1984L69.0584 1.74H73.6784L73.4384 3.42H62.1984L59.9784 15.16H56.9984L57.8984 10.36L57.1784 12.48H55.5184ZM69.0784 8.22L69.1784 7.46H65.3184L65.2184 8.22H69.0784ZM65.4984 6.24H69.3584L69.4584 5.48H65.5984L65.4984 6.24Z" fill="black"/>
</svg>
