<svg width="74" height="16" viewBox="0 0 74 16" fill="none" xmlns="http://www.w3.org/2000/svg">
<path id="&#230;&#152;&#159;&#230;&#178;&#179;&#233;&#149;&#191;&#230;&#152;&#142;" d="M3.00313 7.48H5.40313L5.14313 8.14H7.72313L7.90313 6.88H2.48313L3.16313 1.96L2.56313 1.16H18.0231L17.2231 6.88H11.9431L11.7631 8.14H17.1031L16.8431 9.94H11.5031L11.3831 10.8H16.7031L16.4631 12.52H11.1431L11.0631 13.12H17.2831L17.0431 14.82H0.783125L1.02313 13.12H7.02313L7.10313 12.52H2.26313L2.50313 10.8H7.34313L7.46313 9.94H4.44313L4.22313 10.54H1.74313L3.00313 7.48ZM6.86313 3.24H13.9231L14.0231 2.64H6.96313L6.86313 3.24ZM13.6431 5.28L13.7231 4.7H6.66313L6.58313 5.28H13.6431ZM21.1016 4.58L20.8216 1.16H24.2416L24.5216 4.58H21.1016ZM20.5216 8.76L20.2416 5.34H23.6616L23.9416 8.76H20.5216ZM18.4816 15.18L20.4216 9.52H23.8416L21.9016 15.18H18.4816ZM37.1216 1.2L36.8416 3.2H36.1616L34.6216 14.1C34.5816 14.3933 34.4416 14.64 34.2016 14.84C33.9749 15.04 33.7082 15.14 33.4016 15.14H30.1416L31.5616 13.66L33.0416 3.16H25.1016L25.3816 1.2H37.1216ZM32.0816 4.52L31.1016 11.46H24.6416L25.6216 4.52H32.0816ZM29.0416 6.1H28.1416L27.6016 9.88H28.5016L29.0416 6.1ZM39.6 8.38H38.08L38.36 6.48H39.86L40.56 1.54L39.92 0.779999H44.48L43.68 6.48H44.38L49.74 1.16H53.92L48.56 6.48H54.32L54.04 8.38H43.4L42.78 12.84L45.1 12.56L44.84 14.46L38.64 15.18L39.6 8.38ZM50.52 9.14L53.84 15.18H49.66L46.34 9.14H50.52ZM67.5784 15.16L68.6184 14.06L69.1384 10.26H66.8984L65.9984 15.16H62.7784L65.3184 1.14H73.5184L71.7384 13.84C71.6851 14.2133 71.5118 14.5267 71.2184 14.78C70.9384 15.0333 70.6184 15.16 70.2584 15.16H67.5784ZM57.3784 2.12L57.0184 1.54H63.9384L62.1184 14.36H55.6584L57.3784 2.12ZM59.8584 12.56L60.3984 8.74H59.0784L58.5384 12.56H59.8584ZM59.3384 6.86H60.6584L61.1584 3.34H59.8384L59.3384 6.86ZM67.2584 8.36H69.4184L69.6584 6.64H67.5784L67.2584 8.36ZM67.9384 4.74H69.9184L70.1584 3.04H68.2584L67.9384 4.74Z" fill="white"/>
</svg>
