<svg width="74" height="16" viewBox="0 0 74 16" fill="none" xmlns="http://www.w3.org/2000/svg">
<path id="&#230;&#152;&#159;&#231;&#190;&#164;&#230;&#177;&#135;&#232;&#129;&#154;" d="M2.8 7.48H5.2L4.94 8.14H7.52L7.7 6.88H2.28L2.96 1.96L2.36 1.16H17.82L17.02 6.88H11.74L11.56 8.14H16.9L16.64 9.94H11.3L11.18 10.8H16.5L16.26 12.52H10.94L10.86 13.12H17.08L16.84 14.82H0.58L0.82 13.12H6.82L6.9 12.52H2.06L2.3 10.8H7.14L7.26 9.94H4.24L4.02 10.54H1.54L2.8 7.48ZM6.66 3.24H13.72L13.82 2.64H6.76L6.66 3.24ZM13.44 5.28L13.52 4.7H6.46L6.38 5.28H13.44ZM21.6384 4.02L21.7984 2.86H20.6584L20.8984 1.16H28.4984L28.0984 4.02H28.8584L28.6184 5.72H27.8584L27.4584 8.58H23.9584L23.7184 9.14H27.3784L26.5184 15.18H20.4384L20.6984 13.32H18.8184L20.9184 8.58H19.8584L20.0984 6.86H21.2384L21.3984 5.72H19.8784L20.1184 4.02H21.6384ZM30.3784 6.68L30.6784 4.58H29.1584L29.3984 2.86H30.0384L29.9384 1.5L29.3184 0.779999H32.3584L32.5184 2.86H33.1184L33.6384 1.42L33.1184 0.779999H36.3584L35.5984 2.86H36.2384L35.9984 4.58H34.4784L34.1784 6.68H35.6984L35.4584 8.38H33.9384L33.6384 10.48H35.5584L35.3184 12.18H33.3984L32.9784 15.18H29.1784L29.5984 12.18H27.7184L27.9584 10.48H29.8384L30.1384 8.38H28.6184L28.8584 6.68H30.3784ZM24.0984 13.5L24.4784 10.84H23.7184L23.3384 13.5H24.0984ZM24.8384 2.86L24.6784 4.02H25.4384L25.5984 2.86H24.8384ZM25.0384 6.86L25.1984 5.72H24.4384L24.2784 6.86H25.0384ZM39.5369 4.58L39.2569 1.16H42.6769L42.9569 4.58H39.5369ZM38.9569 8.76L38.6769 5.34H42.0969L42.3769 8.76H38.9569ZM36.7169 15.18L38.8569 9.52H42.2769L40.1369 15.18H36.7169ZM42.3769 14.82L44.1969 1.96L43.3769 1.14H55.2969L55.0369 3.1H47.5569L46.1769 12.88H53.6569L53.3769 14.82H42.3769ZM55.6153 11.04L58.8353 10.06L55.7553 10.1L55.9753 8.58L72.7753 8.24L72.5353 9.82L65.6753 9.94L65.6153 10.26H66.9553L68.3953 11.72L69.2353 10.64H72.4353L70.6153 12.96H69.6353L71.7953 15.14H68.7553L65.4353 11.62L64.9353 15.18H61.8953L62.2153 12.86L55.0553 15.14L55.3153 13.32L62.4953 10.94L62.5553 10.54L55.3353 12.96L55.6153 11.04ZM64.4753 7.46L63.7353 7.5L63.6753 8H60.9753L61.0353 7.62L56.0753 7.82L56.3153 6.22L57.0353 6.2L57.5753 2.46H56.8353L57.0153 1.14H65.3553L65.1753 2.46H64.4553L63.9753 5.9L64.6953 5.86L64.4753 7.46ZM68.2753 3.26L69.1753 4.22L70.6953 2.88H65.5153L65.7553 1.16H73.7353L73.4353 3.38L70.6753 5.82L72.7553 8H69.4553L68.8753 7.4L68.1953 8H64.8553L67.3353 5.82L65.3953 3.82L65.4753 3.26H68.2753ZM60.2153 3.04H61.6753L61.7553 2.46H60.2953L60.2153 3.04ZM59.9953 4.56H61.4553L61.5153 4.16H60.0553L59.9953 4.56ZM59.7753 6.08L61.2553 6.02L61.2953 5.68H59.8353L59.7753 6.08Z" fill="black"/>
</svg>
