<svg width="74" height="16" viewBox="0 0 74 16" fill="none" xmlns="http://www.w3.org/2000/svg">
<path id="&#230;&#152;&#159;&#232;&#140;&#167;&#230;&#136;&#144;&#231;&#190;&#189;" d="M3.00313 7.48H5.40313L5.14313 8.14H7.72313L7.90313 6.88H2.48313L3.16313 1.96L2.56313 1.16H18.0231L17.2231 6.88H11.9431L11.7631 8.14H17.1031L16.8431 9.94H11.5031L11.3831 10.8H16.7031L16.4631 12.52H11.1431L11.0631 13.12H17.2831L17.0431 14.82H0.783125L1.02313 13.12H7.02313L7.10313 12.52H2.26313L2.50313 10.8H7.34313L7.46313 9.94H4.44313L4.22313 10.54H1.74313L3.00313 7.48ZM6.86313 3.24H13.9231L14.0231 2.64H6.96313L6.86313 3.24ZM13.6431 5.28L13.7231 4.7H6.66313L6.58313 5.28H13.6431ZM25.2416 12.72L25.4816 11.04H20.1216L20.9016 5.6H26.2416L26.4216 4.36H30.2216L30.0416 5.6H35.4416L34.6616 11.04H29.2816L29.0616 12.6L31.2216 12.54L31.1016 11.72H34.1416L34.7016 15.16H31.6616L31.5416 14.48L18.9016 14.84L19.1816 12.88L25.2416 12.72ZM22.8416 3.62H20.4616L20.7216 1.72H23.1016L23.1416 1.54L22.5016 0.779999H26.6816L26.5416 1.72H30.8616L30.9016 1.54L30.2616 0.779999H34.4416L34.3016 1.72H36.6816L36.4216 3.62H34.0216L33.9016 4.56H30.4816L30.6016 3.62H26.2616L26.1416 4.56H22.7216L22.8416 3.62ZM29.8016 7.3L29.5216 9.34H31.4616L31.7616 7.3H29.8016ZM25.7216 9.34L26.0016 7.3H24.1016L23.8016 9.34H25.7216ZM42.74 13.32L43.48 8H42L40.56 15.18H37.14L39.52 3.4L38.9 2.68H46.54L46.2 1.44L45.64 0.779999H49.44L49.96 2.68H55.24L54.98 4.58H50.5L51.64 8.7L54.22 7.24L53.86 9.9L52.24 10.82L52.84 12.94H53.42L54.3 12.18L53.86 15.18H50.06L49.3 12.46L46.42 14.08L46.8 11.42L48.7 10.36L47.08 4.58H42.7L42.38 6.1H46.78L45.86 12.72C45.7933 13.1067 45.6133 13.4333 45.32 13.7C45.0267 13.9533 44.6867 14.08 44.3 14.08H41.86L42.74 13.32ZM54.54 2.3H50.74L50.54 0.979999H54.34L54.54 2.3ZM59.2184 13.26H60.4384L61.8184 3.08H57.1184L57.3784 1.18H65.1584L63.3584 14.04C63.2918 14.48 63.1451 14.7733 62.9184 14.92C62.7051 15.0667 62.3918 15.14 61.9784 15.14H57.4584L59.2184 13.26ZM67.3384 13.26H68.5784L69.9584 3.08H65.4584L65.7184 1.18H73.2984L71.4984 14.04C71.4318 14.48 71.2851 14.7733 71.0584 14.92C70.8451 15.0667 70.5318 15.14 70.1184 15.14H65.5784L67.3384 13.26ZM60.5784 8.18L59.2384 12.16H55.8784L57.3584 8.18H60.5784ZM68.4984 8.18L67.2584 12.18H64.1984L65.4984 8.18H68.4984ZM60.4184 3.84L60.6384 7.4H57.4384L57.0184 3.84H60.4184ZM68.3384 3.84L68.5984 7.4H65.5984L65.3384 3.84H68.3384Z" fill="white"/>
</svg>
