<svg width="67" height="19" viewBox="0 0 67 19" fill="none" xmlns="http://www.w3.org/2000/svg">
<path id="&#231;&#131;&#159;&#231;&#129;&#171;&#231;&#175;&#135;" d="M22.6788 1.416L20.3748 17.76H8.18281L10.4868 1.416H22.6788ZM17.3748 15.936L19.1508 3.24H13.4628L11.6868 15.936H17.3748ZM6.45481 8.832L7.79881 18.168H4.94281L4.58281 14.28L3.04681 18.168H0.190812L3.64681 9.288L4.67881 1.896L4.19881 0.959999H7.55881L6.45481 8.832ZM17.4948 4.2L16.9908 5.952H18.3828L18.1188 7.8H16.7028L17.1828 15.144H15.0948L14.9508 12.984L14.3268 15.144H12.1668L14.3028 7.8H13.2228L13.4868 5.952H14.8308L15.3588 4.2H17.4948ZM6.67081 9.96L7.89481 2.664H9.62281L8.37481 9.96H6.67081ZM2.47081 2.664H4.07881L3.26281 9.96H1.60681L2.47081 2.664ZM36.2369 8.616L43.0769 18.216H37.8209L33.5009 12.312L27.8129 18.216H22.5569L31.6529 8.712L32.6129 1.848L31.8449 0.935999H37.3169L36.2369 8.616ZM25.2929 2.88L24.8129 2.304H29.6129L29.9489 9.6H25.6049L25.2929 2.88ZM37.7009 9.6L39.8849 2.88L39.4049 2.304H44.4209L42.0209 9.6H37.7009ZM57.6431 5.016L57.9551 5.52H65.2511L64.5551 10.488H49.7231L48.1151 18.144H44.4431L47.1071 5.496H50.7791V5.52H54.3071L53.9951 5.016H57.6431ZM53.0831 10.944V10.968H64.9631L64.0991 17.04C64.0671 17.36 63.8991 17.624 63.5951 17.832C63.2911 18.04 62.9551 18.144 62.5871 18.144H59.7071L60.9311 17.088L61.0751 15.936H60.3311L60.0671 17.808H56.9231L57.1871 15.936H56.3951L56.1311 17.76H52.9391L53.2031 15.936H52.3871L52.0751 18.168H48.9071L49.9151 10.944H53.0831ZM61.7231 1.8H66.7391L66.4991 3.384H64.2191L64.9631 4.584H61.3151L60.6431 3.504L59.9471 4.584H55.8431L57.8111 1.512L57.2591 0.959999H62.2751L61.7231 1.8ZM52.1711 1.776H56.7071L56.4671 3.384H54.6431L55.3871 4.584H51.7391L51.0671 3.504L50.3711 4.584H46.2671L48.2351 1.512L47.6831 0.959999H52.6991L52.1711 1.776ZM50.3471 7.536L50.1311 8.52H61.0271L61.1711 7.536H50.3471ZM52.6271 14.088H53.4671L53.6591 12.768H52.8191L52.6271 14.088ZM56.6591 14.088H57.4271L57.6191 12.768H56.8511L56.6591 14.088ZM60.7631 12.768L60.5711 14.088H61.3391L61.5311 12.768H60.7631Z" fill="black"/>
</svg>
