<svg width="74" height="16" viewBox="0 0 74 16" fill="none" xmlns="http://www.w3.org/2000/svg">
<path id="&#233;&#163;&#142;&#229;&#144;&#175;&#230;&#150;&#176;&#231;&#171;&#160;" d="M17.5031 15.18H12.7431L13.0431 13.06H9.94313L9.26313 10.52L7.90313 13.12H4.76313L8.06313 8.22L6.14313 4.48L4.06313 15.18H0.863125L3.44313 1.88L2.82313 1.14H17.9431L16.2431 13.26H17.0031L17.8831 12.5L17.5031 15.18ZM13.0431 13.02L14.2631 4.26L11.0431 8.18L13.0431 13.02ZM14.2831 4.1L14.4431 3.06H6.42313L6.22313 4.1H9.10313L9.86313 6.02L11.2831 4.1H14.2831ZM24.5216 7.18L22.7216 15.14H18.7616L21.6016 2.62L20.9816 1.88H27.2016L27.2616 1.56L26.6016 0.799999H31.6816L31.5216 1.88H36.8216L36.0816 7.18H24.5216ZM35.9016 8.38L35.0016 14.78H23.5216L24.4216 8.38H35.9016ZM31.8616 12.94L32.2416 10.22H27.5616L27.1816 12.94H31.8616ZM25.2816 3.78L24.9416 5.3H32.8216L33.0416 3.78H25.2816ZM48.12 1.92L55.3 0.779999L55.02 2.68L50.76 3.36L50.48 5.34H55.04L54.76 7.24H54L52.88 15.18H50.02L51.14 7.24H50.2L49.08 15.18H46.24L48.12 1.92ZM40.82 7.82L40.9 7.24H38.04L38.32 5.34H39.66L39.42 4.2H42.08L42.32 5.34H43.06L43.62 4.2H46.28L45.72 5.34H47.06L46.78 7.24H43.94L43.86 7.82H46.32L46.06 9.72H43.6L43.02 13.86C42.9533 14.2467 42.7667 14.5667 42.46 14.82C42.1667 15.06 41.8267 15.18 41.44 15.18H38.82L39.94 14.04L40.56 9.72H38.08L38.34 7.82H40.82ZM41.66 1.92L41.74 1.36L41.24 0.779999H44.86L44.7 1.92H47.16L46.88 3.82H38.9L39.18 1.92H41.66ZM43.88 10.28H45.78L45.82 14.08H43.92L43.88 10.28ZM38.98 14.08H37.08L38.2 10.28H40.1L38.98 14.08ZM71.3184 11.82H65.8984L65.8184 12.38H71.9784L71.7384 14.14H65.5584L65.4184 15.14H62.0184L62.1584 14.14H55.8584L56.0984 12.38H62.4184L62.4984 11.82H56.9584L57.7384 6.26H72.0984L71.3184 11.82ZM63.5584 4.38H66.7784L67.4184 3.44H71.2184L70.5784 4.38H73.3384L73.1184 5.94H56.5984L56.8184 4.38H59.7584L59.4584 3.44H63.2584L63.5584 4.38ZM63.6584 1.68L63.6984 1.46L63.2384 0.779999H67.5984L67.4584 1.68H73.3384L73.1184 3.24H57.3584L57.5784 1.68H63.6584ZM60.6584 8.36H68.5584L68.6584 7.62H60.7584L60.6584 8.36ZM68.2784 10.38L68.3784 9.64H60.4784L60.3784 10.38H68.2784Z" fill="black"/>
</svg>
